<?xml version="1.0" encoding="us-ascii" standalone="no"?><svg xmlns="http://www.w3.org/2000/svg" xmlns:xlink="http://www.w3.org/1999/xlink" contentStyleType="text/css" height="233px" preserveAspectRatio="none" style="width:820px;height:233px;background:#FFFFFF;" version="1.1" viewBox="0 0 820 233" width="820px" zoomAndPan="magnify"><defs/><g><rect fill="#B8B8B8" height="221.2578" style="stroke:#181818;stroke-width:0.5;" width="180" x="1" y="6"/><text fill="#000000" font-family="sans-serif" font-size="13" font-weight="bold" lengthAdjust="spacing" textLength="114" x="34" y="18.0669">Content Scripts</text><rect fill="#E5E8E8" height="221.2578" style="stroke:#181818;stroke-width:0.5;" width="631" x="183" y="6"/><text fill="#000000" font-family="sans-serif" font-size="13" font-weight="bold" lengthAdjust="spacing" textLength="140" x="428.5" y="18.0669">Background Pages</text><line style="stroke:#181818;stroke-width:0.5;stroke-dasharray:5.0,5.0;" x1="41" x2="41" y1="56.4297" y2="192.9609"/><line style="stroke:#181818;stroke-width:0.5;stroke-dasharray:5.0,5.0;" x1="132" x2="132" y1="56.4297" y2="192.9609"/><line style="stroke:#181818;stroke-width:0.5;stroke-dasharray:5.0,5.0;" x1="283" x2="283" y1="56.4297" y2="192.9609"/><line style="stroke:#181818;stroke-width:0.5;stroke-dasharray:5.0,5.0;" x1="475" x2="475" y1="56.4297" y2="192.9609"/><line style="stroke:#181818;stroke-width:0.5;stroke-dasharray:5.0,5.0;" x1="734" x2="734" y1="56.4297" y2="192.9609"/><rect fill="#E2E2F0" height="30.2969" rx="2.5" ry="2.5" style="stroke:#181818;stroke-width:0.5;" width="73" x="5" y="25.1328"/><text fill="#000000" font-family="sans-serif" font-size="14" lengthAdjust="spacing" textLength="59" x="12" y="45.1279">autofill.js</text><rect fill="#E2E2F0" height="30.2969" rx="2.5" ry="2.5" style="stroke:#181818;stroke-width:0.5;" width="73" x="5" y="191.9609"/><text fill="#000000" font-family="sans-serif" font-size="14" lengthAdjust="spacing" textLength="59" x="12" y="211.9561">autofill.js</text><rect fill="#E2E2F0" height="30.2969" rx="2.5" ry="2.5" style="stroke:#181818;stroke-width:0.5;" width="89" x="88" y="25.1328"/><text fill="#000000" font-family="sans-serif" font-size="14" lengthAdjust="spacing" textLength="75" x="95" y="45.1279">autofiller.ts</text><rect fill="#E2E2F0" height="30.2969" rx="2.5" ry="2.5" style="stroke:#181818;stroke-width:0.5;" width="89" x="88" y="191.9609"/><text fill="#000000" font-family="sans-serif" font-size="14" lengthAdjust="spacing" textLength="75" x="95" y="211.9561">autofiller.ts</text><rect fill="#E2E2F0" height="30.2969" rx="2.5" ry="2.5" style="stroke:#181818;stroke-width:0.5;" width="193" x="187" y="25.1328"/><text fill="#000000" font-family="sans-serif" font-size="14" lengthAdjust="spacing" textLength="179" x="194" y="45.1279">notification.background.ts</text><rect fill="#E2E2F0" height="30.2969" rx="2.5" ry="2.5" style="stroke:#181818;stroke-width:0.5;" width="193" x="187" y="191.9609"/><text fill="#000000" font-family="sans-serif" font-size="14" lengthAdjust="spacing" textLength="179" x="194" y="211.9561">notification.background.ts</text><rect fill="#E2E2F0" height="30.2969" rx="2.5" ry="2.5" style="stroke:#181818;stroke-width:0.5;" width="171" x="390" y="25.1328"/><text fill="#000000" font-family="sans-serif" font-size="14" lengthAdjust="spacing" textLength="157" x="397" y="45.1279">runtime.background.ts</text><rect fill="#E2E2F0" height="30.2969" rx="2.5" ry="2.5" style="stroke:#181818;stroke-width:0.5;" width="171" x="390" y="191.9609"/><text fill="#000000" font-family="sans-serif" font-size="14" lengthAdjust="spacing" textLength="157" x="397" y="211.9561">runtime.background.ts</text><rect fill="#E2E2F0" height="30.2969" rx="2.5" ry="2.5" style="stroke:#181818;stroke-width:0.5;" width="151" x="659" y="25.1328"/><text fill="#000000" font-family="sans-serif" font-size="14" lengthAdjust="spacing" textLength="137" x="666" y="45.1279">main.background.ts</text><rect fill="#E2E2F0" height="30.2969" rx="2.5" ry="2.5" style="stroke:#181818;stroke-width:0.5;" width="151" x="659" y="191.9609"/><text fill="#000000" font-family="sans-serif" font-size="14" lengthAdjust="spacing" textLength="137" x="666" y="211.9561">main.background.ts</text><polygon fill="#181818" points="463.5,83.5625,473.5,87.5625,463.5,91.5625,467.5,87.5625" style="stroke:#181818;stroke-width:1.0;"/><line style="stroke:#181818;stroke-width:1.0;" x1="132.5" x2="469.5" y1="87.5625" y2="87.5625"/><text fill="#000000" font-family="sans-serif" font-size="13" lengthAdjust="spacing" textLength="256" x="139.5" y="82.4966">bgCollectPageDetails [sender: autofiller]</text><polygon fill="#181818" points="722.5,112.6953,732.5,116.6953,722.5,120.6953,726.5,116.6953" style="stroke:#181818;stroke-width:1.0;"/><line style="stroke:#181818;stroke-width:1.0;stroke-dasharray:2.0,2.0;" x1="475.5" x2="728.5" y1="116.6953" y2="116.6953"/><text fill="#000000" font-family="sans-serif" font-size="13" lengthAdjust="spacing" textLength="235" x="482.5" y="111.6294">collectPageDetailsForContentScript()</text><polygon fill="#181818" points="52.5,141.8281,42.5,145.8281,52.5,149.8281,48.5,145.8281" style="stroke:#181818;stroke-width:1.0;"/><line style="stroke:#181818;stroke-width:1.0;" x1="46.5" x2="733.5" y1="145.8281" y2="145.8281"/><text fill="#000000" font-family="sans-serif" font-size="13" lengthAdjust="spacing" textLength="238" x="58.5" y="140.7622">collectPageDetails [sender: autofiller]</text><polygon fill="#181818" points="463.5,170.9609,473.5,174.9609,463.5,178.9609,467.5,174.9609" style="stroke:#181818;stroke-width:1.0;"/><line style="stroke:#181818;stroke-width:1.0;" x1="41.5" x2="469.5" y1="174.9609" y2="174.9609"/><text fill="#000000" font-family="sans-serif" font-size="13" lengthAdjust="spacing" textLength="300" x="48.5" y="169.895">collectPageDetailsResponse [sender: autofiller]</text><!--SRC=[RP4nJmCn38Nt_0ghB33qDgIg0qFBCICO4OCJt9FX6fyIdzIVJm9trqONPOhzllTisSe5DaVnIbxXtGKUD6xWxh3BpmmOb1qFc9eugfouxvll21YNRrL3eT52HS6G_m8h5sDiZZoW- -c2ZAduYXtbpFQntRLbfXVb4pjK5j_O1PdCRxi55aQlVAOrCJKAyHcvufshrv6lQy3sQNQ1FTZkAAdgDE_mJ8hSH_Y8YQEmlrd-qypCDl7PEy5kXRv8c4xnVudx1_EdJSpiLUNgaGjIZBoctoWEuYFLNNu1]--></g></svg>