<?xml version="1.0" encoding="us-ascii" standalone="no"?><svg xmlns="http://www.w3.org/2000/svg" xmlns:xlink="http://www.w3.org/1999/xlink" contentStyleType="text/css" height="328px" preserveAspectRatio="none" style="width:804px;height:328px;background:#FFFFFF;" version="1.1" viewBox="0 0 804 328" width="804px" zoomAndPan="magnify"><defs/><g><rect fill="none" height="75.3984" style="stroke:#000000;stroke-width:1.5;" width="668" x="130" y="53.2969"/><rect fill="none" height="133.6641" style="stroke:#000000;stroke-width:1.5;" width="788" x="10" y="142.6953"/><line style="stroke:#181818;stroke-width:0.5;stroke-dasharray:5.0,5.0;" x1="75" x2="75" y1="36.2969" y2="293.3594"/><line style="stroke:#181818;stroke-width:0.5;stroke-dasharray:5.0,5.0;" x1="188" x2="188" y1="36.2969" y2="293.3594"/><line style="stroke:#181818;stroke-width:0.5;stroke-dasharray:5.0,5.0;" x1="348" x2="348" y1="36.2969" y2="293.3594"/><line style="stroke:#181818;stroke-width:0.5;stroke-dasharray:5.0,5.0;" x1="536" x2="536" y1="36.2969" y2="293.3594"/><line style="stroke:#181818;stroke-width:0.5;stroke-dasharray:5.0,5.0;" x1="705" x2="705" y1="36.2969" y2="293.3594"/><rect fill="#E2E2F0" height="30.2969" rx="2.5" ry="2.5" style="stroke:#181818;stroke-width:0.5;" width="110" x="20" y="5"/><text fill="#000000" font-family="sans-serif" font-size="14" lengthAdjust="spacing" textLength="96" x="27" y="24.9951">Mobile Device</text><rect fill="#E2E2F0" height="30.2969" rx="2.5" ry="2.5" style="stroke:#181818;stroke-width:0.5;" width="110" x="20" y="292.3594"/><text fill="#000000" font-family="sans-serif" font-size="14" lengthAdjust="spacing" textLength="96" x="27" y="312.3545">Mobile Device</text><rect fill="#E2E2F0" height="30.2969" rx="2.5" ry="2.5" style="stroke:#181818;stroke-width:0.5;" width="96" x="140" y="5"/><text fill="#000000" font-family="sans-serif" font-size="14" lengthAdjust="spacing" textLength="82" x="147" y="24.9951">Other Client</text><rect fill="#E2E2F0" height="30.2969" rx="2.5" ry="2.5" style="stroke:#181818;stroke-width:0.5;" width="96" x="140" y="292.3594"/><text fill="#000000" font-family="sans-serif" font-size="14" lengthAdjust="spacing" textLength="82" x="147" y="312.3545">Other Client</text><rect fill="#E2E2F0" height="30.2969" rx="2.5" ry="2.5" style="stroke:#181818;stroke-width:0.5;" width="204" x="246" y="5"/><text fill="#000000" font-family="sans-serif" font-size="14" lengthAdjust="spacing" textLength="190" x="253" y="24.9951">Platform Notification Service</text><rect fill="#E2E2F0" height="30.2969" rx="2.5" ry="2.5" style="stroke:#181818;stroke-width:0.5;" width="204" x="246" y="292.3594"/><text fill="#000000" font-family="sans-serif" font-size="14" lengthAdjust="spacing" textLength="190" x="253" y="312.3545">Platform Notification Service</text><rect fill="#E2E2F0" height="30.2969" rx="2.5" ry="2.5" style="stroke:#181818;stroke-width:0.5;" width="152" x="460" y="5"/><text fill="#000000" font-family="sans-serif" font-size="14" lengthAdjust="spacing" textLength="138" x="467" y="24.9951">Bitwarden Cloud API</text><rect fill="#E2E2F0" height="30.2969" rx="2.5" ry="2.5" style="stroke:#181818;stroke-width:0.5;" width="152" x="460" y="292.3594"/><text fill="#000000" font-family="sans-serif" font-size="14" lengthAdjust="spacing" textLength="138" x="467" y="312.3545">Bitwarden Cloud API</text><rect fill="#E2E2F0" height="30.2969" rx="2.5" ry="2.5" style="stroke:#181818;stroke-width:0.5;" width="166" x="622" y="5"/><text fill="#000000" font-family="sans-serif" font-size="14" lengthAdjust="spacing" textLength="152" x="629" y="24.9951">Azure Notification Hub</text><rect fill="#E2E2F0" height="30.2969" rx="2.5" ry="2.5" style="stroke:#181818;stroke-width:0.5;" width="166" x="622" y="292.3594"/><text fill="#000000" font-family="sans-serif" font-size="14" lengthAdjust="spacing" textLength="152" x="629" y="312.3545">Azure Notification Hub</text><path d="M130,53.2969 L366,53.2969 L366,60.4297 L356,70.4297 L130,70.4297 L130,53.2969 " fill="#EEEEEE" style="stroke:#000000;stroke-width:1.5;"/><rect fill="none" height="75.3984" style="stroke:#000000;stroke-width:1.5;" width="668" x="130" y="53.2969"/><text fill="#000000" font-family="sans-serif" font-size="13" font-weight="bold" lengthAdjust="spacing" textLength="191" x="145" y="66.3638">Other client updates data</text><line style="stroke:#181818;stroke-width:1.0;" x1="534" x2="524" y1="91.5625" y2="87.5625"/><line style="stroke:#181818;stroke-width:1.0;" x1="534" x2="524" y1="91.5625" y2="95.5625"/><line style="stroke:#181818;stroke-width:1.0;" x1="188" x2="535" y1="91.5625" y2="91.5625"/><text fill="#000000" font-family="sans-serif" font-size="13" lengthAdjust="spacing" textLength="82" x="195" y="86.4966">Update Data</text><line style="stroke:#181818;stroke-width:1.0;" x1="703" x2="693" y1="120.6953" y2="116.6953"/><line style="stroke:#181818;stroke-width:1.0;" x1="703" x2="693" y1="120.6953" y2="124.6953"/><line style="stroke:#181818;stroke-width:1.0;" x1="536" x2="704" y1="120.6953" y2="120.6953"/><text fill="#000000" font-family="sans-serif" font-size="13" lengthAdjust="spacing" textLength="141" x="543" y="115.6294">Send Message to Hub</text><path d="M10,142.6953 L266,142.6953 L266,149.8281 L256,159.8281 L10,159.8281 L10,142.6953 " fill="#EEEEEE" style="stroke:#000000;stroke-width:1.5;"/><rect fill="none" height="133.6641" style="stroke:#000000;stroke-width:1.5;" width="788" x="10" y="142.6953"/><text fill="#000000" font-family="sans-serif" font-size="13" font-weight="bold" lengthAdjust="spacing" textLength="211" x="25" y="155.7622">Mobile message distribution</text><line style="stroke:#181818;stroke-width:1.0;" x1="349" x2="359" y1="180.9609" y2="176.9609"/><line style="stroke:#181818;stroke-width:1.0;" x1="349" x2="359" y1="180.9609" y2="184.9609"/><line style="stroke:#181818;stroke-width:1.0;" x1="348" x2="704" y1="180.9609" y2="180.9609"/><text fill="#000000" font-family="sans-serif" font-size="13" lengthAdjust="spacing" textLength="254" x="365" y="175.895">Send Message to Clients by Push Token</text><line style="stroke:#181818;stroke-width:1.0;" x1="76" x2="86" y1="210.0938" y2="206.0938"/><line style="stroke:#181818;stroke-width:1.0;" x1="76" x2="86" y1="210.0938" y2="214.0938"/><line style="stroke:#181818;stroke-width:1.0;" x1="75" x2="347" y1="210.0938" y2="210.0938"/><text fill="#000000" font-family="sans-serif" font-size="13" lengthAdjust="spacing" textLength="123" x="92" y="205.0278">OnMessageAsync()</text><line style="stroke:#181818;stroke-width:1.0;" x1="534" x2="524" y1="239.2266" y2="235.2266"/><line style="stroke:#181818;stroke-width:1.0;" x1="534" x2="524" y1="239.2266" y2="243.2266"/><line style="stroke:#181818;stroke-width:1.0;" x1="75" x2="535" y1="239.2266" y2="239.2266"/><text fill="#000000" font-family="sans-serif" font-size="13" lengthAdjust="spacing" textLength="85" x="82" y="234.1606">Request data</text><line style="stroke:#181818;stroke-width:1.0;" x1="76" x2="86" y1="268.3594" y2="264.3594"/><line style="stroke:#181818;stroke-width:1.0;" x1="76" x2="86" y1="268.3594" y2="272.3594"/><line style="stroke:#181818;stroke-width:1.0;" x1="75" x2="535" y1="268.3594" y2="268.3594"/><text fill="#000000" font-family="sans-serif" font-size="13" lengthAdjust="spacing" textLength="144" x="92" y="263.2935">Return data requested</text><!--SRC=[PP2nRi8m48PtFyKfKplq1J8WXJ2aKXCYQCLOEV41fmOxsETMzEdhs45gnEBXztUV_hjHMgQUHgaPwlBpRG_IGLQRZWQ43NvJZvaO_q67CX9RFgE5SY3Kl0JQ9ZdQGVBHs0iqXkb8lMGo6lPe7vr5-nf7riG_qYhKGMoycl8bs5IHAtwznQMtybqcnCaQFqBgriTku4Sb6Hs4Luf3-R9Q1MiE7p66pPI68CHDbOTsMa6DpiaJ0fl9Aa9q5yzdkSo08iUMEZyL44qL767tHqawaeFk1grtPtWtNwX5GCD0F7aEMptpXRlf_kbPnFpUTOTNZuxJ2gdiFBT3zbR73x29GZKr_WC0]--></g></svg>