<?xml version="1.0" encoding="us-ascii" standalone="no"?><svg xmlns="http://www.w3.org/2000/svg" xmlns:xlink="http://www.w3.org/1999/xlink" contentStyleType="text/css" height="330px" preserveAspectRatio="none" style="width:881px;height:330px;background:#FFFFFF;" version="1.1" viewBox="0 0 881 330" width="881px" zoomAndPan="magnify"><defs/><g><rect fill="none" height="46.2656" style="stroke:#000000;stroke-width:1.5;" width="741" x="134" y="53.2969"/><rect fill="none" height="75.3984" style="stroke:#000000;stroke-width:1.5;" width="635.5" x="10" y="113.5625"/><rect fill="none" height="75.3984" style="stroke:#000000;stroke-width:1.5;" width="741" x="134" y="202.9609"/><line style="stroke:#181818;stroke-width:0.5;stroke-dasharray:5.0,5.0;" x1="77" x2="77" y1="36.2969" y2="295.3594"/><line style="stroke:#181818;stroke-width:0.5;stroke-dasharray:5.0,5.0;" x1="206" x2="206" y1="36.2969" y2="295.3594"/><line style="stroke:#181818;stroke-width:0.5;stroke-dasharray:5.0,5.0;" x1="354" x2="354" y1="36.2969" y2="295.3594"/><line style="stroke:#181818;stroke-width:0.5;stroke-dasharray:5.0,5.0;" x1="582.5" x2="582.5" y1="36.2969" y2="295.3594"/><line style="stroke:#181818;stroke-width:0.5;stroke-dasharray:5.0,5.0;" x1="767" x2="767" y1="36.2969" y2="295.3594"/><rect fill="#E2E2F0" height="30.2969" rx="2.5" ry="2.5" style="stroke:#181818;stroke-width:0.5;" width="114" x="20" y="5"/><text fill="#000000" font-family="sans-serif" font-size="14" lengthAdjust="spacing" textLength="100" x="27" y="24.9951">Initiating Client</text><rect fill="#E2E2F0" height="30.2969" rx="2.5" ry="2.5" style="stroke:#181818;stroke-width:0.5;" width="114" x="20" y="294.3594"/><text fill="#000000" font-family="sans-serif" font-size="14" lengthAdjust="spacing" textLength="100" x="27" y="314.3545">Initiating Client</text><rect fill="#E2E2F0" height="30.2969" rx="2.5" ry="2.5" style="stroke:#181818;stroke-width:0.5;" width="124" x="144" y="5"/><text fill="#000000" font-family="sans-serif" font-size="14" lengthAdjust="spacing" textLength="110" x="151" y="24.9951">Receiving Client</text><rect fill="#E2E2F0" height="30.2969" rx="2.5" ry="2.5" style="stroke:#181818;stroke-width:0.5;" width="124" x="144" y="294.3594"/><text fill="#000000" font-family="sans-serif" font-size="14" lengthAdjust="spacing" textLength="110" x="151" y="314.3545">Receiving Client</text><rect fill="#E2E2F0" height="30.2969" rx="2.5" ry="2.5" style="stroke:#181818;stroke-width:0.5;" width="152" x="278" y="5"/><text fill="#000000" font-family="sans-serif" font-size="14" lengthAdjust="spacing" textLength="138" x="285" y="24.9951">Bitwarden Cloud API</text><rect fill="#E2E2F0" height="30.2969" rx="2.5" ry="2.5" style="stroke:#181818;stroke-width:0.5;" width="152" x="278" y="294.3594"/><text fill="#000000" font-family="sans-serif" font-size="14" lengthAdjust="spacing" textLength="138" x="285" y="314.3545">Bitwarden Cloud API</text><rect fill="#E2E2F0" height="30.2969" rx="2.5" ry="2.5" style="stroke:#181818;stroke-width:0.5;" width="105" x="530.5" y="5"/><text fill="#000000" font-family="sans-serif" font-size="14" lengthAdjust="spacing" textLength="91" x="537.5" y="24.9951">Azure Queue</text><rect fill="#E2E2F0" height="30.2969" rx="2.5" ry="2.5" style="stroke:#181818;stroke-width:0.5;" width="105" x="530.5" y="294.3594"/><text fill="#000000" font-family="sans-serif" font-size="14" lengthAdjust="spacing" textLength="91" x="537.5" y="314.3545">Azure Queue</text><rect fill="#E2E2F0" height="30.2969" rx="2.5" ry="2.5" style="stroke:#181818;stroke-width:0.5;" width="196" x="669" y="5"/><text fill="#000000" font-family="sans-serif" font-size="14" lengthAdjust="spacing" textLength="182" x="676" y="24.9951">Bitwarden Notifications API</text><rect fill="#E2E2F0" height="30.2969" rx="2.5" ry="2.5" style="stroke:#181818;stroke-width:0.5;" width="196" x="669" y="294.3594"/><text fill="#000000" font-family="sans-serif" font-size="14" lengthAdjust="spacing" textLength="182" x="676" y="314.3545">Bitwarden Notifications API</text><path d="M134,53.2969 L391,53.2969 L391,60.4297 L381,70.4297 L134,70.4297 L134,53.2969 " fill="#EEEEEE" style="stroke:#000000;stroke-width:1.5;"/><rect fill="none" height="46.2656" style="stroke:#000000;stroke-width:1.5;" width="741" x="134" y="53.2969"/><text fill="#000000" font-family="sans-serif" font-size="13" font-weight="bold" lengthAdjust="spacing" textLength="212" x="149" y="66.3638">Establish SignalR connection</text><line style="stroke:#181818;stroke-width:1.0;" x1="765" x2="755" y1="91.5625" y2="87.5625"/><line style="stroke:#181818;stroke-width:1.0;" x1="765" x2="755" y1="91.5625" y2="95.5625"/><line style="stroke:#181818;stroke-width:1.0;" x1="206" x2="766" y1="91.5625" y2="91.5625"/><text fill="#000000" font-family="sans-serif" font-size="13" lengthAdjust="spacing" textLength="167" x="213" y="86.4966">Registers as SignalR client</text><path d="M10,113.5625 L246,113.5625 L246,120.6953 L236,130.6953 L10,130.6953 L10,113.5625 " fill="#EEEEEE" style="stroke:#000000;stroke-width:1.5;"/><rect fill="none" height="75.3984" style="stroke:#000000;stroke-width:1.5;" width="635.5" x="10" y="113.5625"/><text fill="#000000" font-family="sans-serif" font-size="13" font-weight="bold" lengthAdjust="spacing" textLength="191" x="25" y="126.6294">Other client updates data</text><line style="stroke:#181818;stroke-width:1.0;" x1="352" x2="342" y1="151.8281" y2="147.8281"/><line style="stroke:#181818;stroke-width:1.0;" x1="352" x2="342" y1="151.8281" y2="155.8281"/><line style="stroke:#181818;stroke-width:1.0;" x1="77" x2="353" y1="151.8281" y2="151.8281"/><text fill="#000000" font-family="sans-serif" font-size="13" lengthAdjust="spacing" textLength="89" x="84" y="146.7622">Updates Data</text><line style="stroke:#181818;stroke-width:1.0;" x1="581" x2="571" y1="180.9609" y2="176.9609"/><line style="stroke:#181818;stroke-width:1.0;" x1="581" x2="571" y1="180.9609" y2="184.9609"/><line style="stroke:#181818;stroke-width:1.0;" x1="354" x2="582" y1="180.9609" y2="180.9609"/><text fill="#000000" font-family="sans-serif" font-size="13" lengthAdjust="spacing" textLength="205" x="361" y="175.895">Sends Message to Azure Queue</text><path d="M134,202.9609 L453,202.9609 L453,210.0938 L443,220.0938 L134,220.0938 L134,202.9609 " fill="#EEEEEE" style="stroke:#000000;stroke-width:1.5;"/><rect fill="none" height="75.3984" style="stroke:#000000;stroke-width:1.5;" width="741" x="134" y="202.9609"/><text fill="#000000" font-family="sans-serif" font-size="13" font-weight="bold" lengthAdjust="spacing" textLength="274" x="149" y="216.0278">Notifications API processes message</text><line style="stroke:#181818;stroke-width:1.0;" x1="765" x2="755" y1="241.2266" y2="237.2266"/><line style="stroke:#181818;stroke-width:1.0;" x1="765" x2="755" y1="241.2266" y2="245.2266"/><line style="stroke:#181818;stroke-width:1.0;" x1="583" x2="766" y1="241.2266" y2="241.2266"/><text fill="#000000" font-family="sans-serif" font-size="13" lengthAdjust="spacing" textLength="160" x="590" y="236.1606">Reads from Azure Queue</text><line style="stroke:#181818;stroke-width:1.0;" x1="207" x2="217" y1="270.3594" y2="266.3594"/><line style="stroke:#181818;stroke-width:1.0;" x1="207" x2="217" y1="270.3594" y2="274.3594"/><line style="stroke:#181818;stroke-width:1.0;" x1="206" x2="766" y1="270.3594" y2="270.3594"/><text fill="#000000" font-family="sans-serif" font-size="13" lengthAdjust="spacing" textLength="285" x="223" y="265.2935">Sends SignalR message to registered clients</text><!--SRC=[TO-xRiCm34LtVGMHFKCy1a60LEsG8Mxje1-Woen3m9O4YMg1VdqbFreRGHSDLuU7l4vv9arE6GQv0nLWSpR4f9XC2x8ZDBmHRaaL0rMZHlhy3pgzdGVgYVXB-GPDecniShu6gm4xVKUFK4MCkFuk7qMbPRgHJWTQ4qQXQBsD3bu2gu-EmXskr1hLrQ2jCQWpAMInFHwpRWyrjXGOVSZcNtHe8T0qi-wLx-Yd7A9h56E0z2eXTyargDwd-3d7AKbvjOThiWIuO0YgHM0BYtxB3GzLm7chqrWozkEqo2SV3jigdwsIzUPjl_ALurfPp7ldHltVVZyrncRg4_8PFm00]--></g></svg>