<?xml version="1.0" encoding="us-ascii" standalone="no"?><svg xmlns="http://www.w3.org/2000/svg" xmlns:xlink="http://www.w3.org/1999/xlink" contentStyleType="text/css" height="393px" preserveAspectRatio="none" style="width:721px;height:393px;background:#FFFFFF;" version="1.1" viewBox="0 0 721 393" width="721px" zoomAndPan="magnify"><defs/><g><!--class Internal[Domain]Service--><g id="elem_Internal[Domain]Service"><rect codeLine="1" fill="#F0F8FF" height="80.5938" id="Internal[Domain]Service" rx="2.5" ry="2.5" style="stroke:#181818;stroke-width:0.5;" width="207" x="305" y="305.89"/><ellipse cx="324.95" cy="321.89" fill="#A9DCDF" rx="11" ry="11" style="stroke:#181818;stroke-width:1.0;"/><path d="M325.0594,317.2338 L323.9031,322.3119 L326.2313,322.3119 L325.0594,317.2338 Z M323.575,314.9994 L326.5594,314.9994 L329.9188,327.39 L327.4656,327.39 L326.7,324.3275 L323.4188,324.3275 L322.6688,327.39 L320.2313,327.39 L323.575,314.9994 Z " fill="#000000"/><text fill="#000000" font-family="sans-serif" font-size="14" font-style="italic" lengthAdjust="spacing" textLength="164" x="340.05" y="326.7367">Internal[Domain]Service</text><line style="stroke:#181818;stroke-width:0.5;" x1="306" x2="511" y1="337.89" y2="337.89"/><line style="stroke:#181818;stroke-width:0.5;" x1="306" x2="511" y1="345.89" y2="345.89"/><ellipse cx="316" cy="359.5384" fill="#84BE84" rx="3" ry="3" style="stroke:#038048;stroke-width:1.0;"/><text fill="#000000" font-family="sans-serif" font-size="14" lengthAdjust="spacing" textLength="157" x="325" y="362.8851">upsert(item: [Domain])</text><ellipse cx="316" cy="375.8353" fill="#84BE84" rx="3" ry="3" style="stroke:#038048;stroke-width:1.0;"/><text fill="#000000" font-family="sans-serif" font-size="14" lengthAdjust="spacing" textLength="181" x="325" y="379.182">replace(items: [Domain][])</text></g><!--class [Domain]Service--><g id="elem_[Domain]Service"><rect codeLine="5" fill="#F0F8FF" height="96.8906" id="[Domain]Service" rx="2.5" ry="2.5" style="stroke:#181818;stroke-width:0.5;" width="299" x="9" y="132"/><ellipse cx="97.75" cy="148" fill="#ADD1B2" rx="11" ry="11" style="stroke:#181818;stroke-width:1.0;"/><path d="M100.7188,153.6406 Q100.1406,153.9375 99.5,154.0781 Q98.8594,154.2344 98.1563,154.2344 Q95.6563,154.2344 94.3281,152.5938 Q93.0156,150.9375 93.0156,147.8125 Q93.0156,144.6875 94.3281,143.0313 Q95.6563,141.375 98.1563,141.375 Q98.8594,141.375 99.5,141.5313 Q100.1563,141.6875 100.7188,141.9844 L100.7188,144.7031 Q100.0938,144.125 99.5,143.8594 Q98.9063,143.5781 98.2813,143.5781 Q96.9375,143.5781 96.25,144.6563 Q95.5625,145.7188 95.5625,147.8125 Q95.5625,149.9063 96.25,150.9844 Q96.9375,152.0469 98.2813,152.0469 Q98.9063,152.0469 99.5,151.7813 Q100.0938,151.5 100.7188,150.9219 L100.7188,153.6406 Z " fill="#000000"/><text fill="#000000" font-family="sans-serif" font-size="14" lengthAdjust="spacing" textLength="113" x="118.25" y="152.8467">[Domain]Service</text><line style="stroke:#181818;stroke-width:0.5;" x1="10" x2="307" y1="164" y2="164"/><polygon fill="none" points="20,172.6484,24,176.6484,20,180.6484,16,176.6484" style="stroke:#B38D22;stroke-width:1.0;"/><text fill="#000000" font-family="sans-serif" font-size="14" lengthAdjust="spacing" textLength="273" x="29" y="180.9951">subject : BehaviorSubject&lt;[Domain][]&gt;</text><ellipse cx="20" cy="193.9453" fill="none" rx="3" ry="3" style="stroke:#038048;stroke-width:1.0;"/><text fill="#000000" font-family="sans-serif" font-size="14" lengthAdjust="spacing" textLength="260" x="29" y="197.292">observable: Observable&lt;[Domain][]&gt;</text><line style="stroke:#181818;stroke-width:0.5;" x1="10" x2="307" y1="204.5938" y2="204.5938"/><rect fill="#F24D5C" height="6" style="stroke:#C82930;stroke-width:1.0;" width="6" x="17" y="215.2422"/><text fill="#000000" font-family="sans-serif" font-size="14" lengthAdjust="spacing" textLength="145" x="29" y="221.5889">updateObservables()</text></g><!--class [Domain]ApiService--><g id="elem_[Domain]ApiService"><rect codeLine="10" fill="#F0F8FF" height="96.8906" id="[Domain]ApiService" rx="2.5" ry="2.5" style="stroke:#181818;stroke-width:0.5;" width="206" x="508.5" y="132"/><ellipse cx="541.5" cy="148" fill="#ADD1B2" rx="11" ry="11" style="stroke:#181818;stroke-width:1.0;"/><path d="M544.4688,153.6406 Q543.8906,153.9375 543.25,154.0781 Q542.6094,154.2344 541.9063,154.2344 Q539.4063,154.2344 538.0781,152.5938 Q536.7656,150.9375 536.7656,147.8125 Q536.7656,144.6875 538.0781,143.0313 Q539.4063,141.375 541.9063,141.375 Q542.6094,141.375 543.25,141.5313 Q543.9063,141.6875 544.4688,141.9844 L544.4688,144.7031 Q543.8438,144.125 543.25,143.8594 Q542.6563,143.5781 542.0313,143.5781 Q540.6875,143.5781 540,144.6563 Q539.3125,145.7188 539.3125,147.8125 Q539.3125,149.9063 540,150.9844 Q540.6875,152.0469 542.0313,152.0469 Q542.6563,152.0469 543.25,151.7813 Q543.8438,151.5 544.4688,150.9219 L544.4688,153.6406 Z " fill="#000000"/><text fill="#000000" font-family="sans-serif" font-size="14" lengthAdjust="spacing" textLength="134" x="559.5" y="152.8467">[Domain]ApiService</text><line style="stroke:#181818;stroke-width:0.5;" x1="509.5" x2="713.5" y1="164" y2="164"/><line style="stroke:#181818;stroke-width:0.5;" x1="509.5" x2="713.5" y1="172" y2="172"/><ellipse cx="519.5" cy="185.6484" fill="#84BE84" rx="3" ry="3" style="stroke:#038048;stroke-width:1.0;"/><text fill="#000000" font-family="sans-serif" font-size="14" lengthAdjust="spacing" textLength="96" x="528.5" y="188.9951">get[Domain]()</text><ellipse cx="519.5" cy="201.9453" fill="#84BE84" rx="3" ry="3" style="stroke:#038048;stroke-width:1.0;"/><text fill="#000000" font-family="sans-serif" font-size="14" lengthAdjust="spacing" textLength="180" x="528.5" y="205.292">get[Domain]by[Property]()</text><ellipse cx="519.5" cy="218.2422" fill="#84BE84" rx="3" ry="3" style="stroke:#038048;stroke-width:1.0;"/><text fill="#000000" font-family="sans-serif" font-size="14" lengthAdjust="spacing" textLength="96" x="528.5" y="221.5889">put[Domain]()</text></g><!--class UI Component--><g id="elem_UI Component"><rect codeLine="15" fill="#F1F1F1" height="48" id="UI Component" rx="2.5" ry="2.5" style="stroke:#181818;stroke-width:0.5;" width="131" x="319" y="7"/><ellipse cx="334" cy="23" fill="#ADD1B2" rx="11" ry="11" style="stroke:#181818;stroke-width:1.0;"/><path d="M336.9688,28.6406 Q336.3906,28.9375 335.75,29.0781 Q335.1094,29.2344 334.4063,29.2344 Q331.9063,29.2344 330.5781,27.5938 Q329.2656,25.9375 329.2656,22.8125 Q329.2656,19.6875 330.5781,18.0313 Q331.9063,16.375 334.4063,16.375 Q335.1094,16.375 335.75,16.5313 Q336.4063,16.6875 336.9688,16.9844 L336.9688,19.7031 Q336.3438,19.125 335.75,18.8594 Q335.1563,18.5781 334.5313,18.5781 Q333.1875,18.5781 332.5,19.6563 Q331.8125,20.7188 331.8125,22.8125 Q331.8125,24.9063 332.5,25.9844 Q333.1875,27.0469 334.5313,27.0469 Q335.1563,27.0469 335.75,26.7813 Q336.3438,26.5 336.9688,25.9219 L336.9688,28.6406 Z " fill="#000000"/><text fill="#000000" font-family="sans-serif" font-size="14" lengthAdjust="spacing" textLength="99" x="348" y="27.8467">UI Component</text><line style="stroke:#181818;stroke-width:0.5;" x1="320" x2="449" y1="39" y2="39"/><line style="stroke:#181818;stroke-width:0.5;" x1="320" x2="449" y1="47" y2="47"/></g><!--class SyncService--><g id="elem_SyncService"><rect codeLine="16" fill="#F1F1F1" height="80.5938" id="SyncService" rx="2.5" ry="2.5" style="stroke:#181818;stroke-width:0.5;" width="131" x="343" y="140.14"/><ellipse cx="365.2" cy="156.14" fill="#ADD1B2" rx="11" ry="11" style="stroke:#181818;stroke-width:1.0;"/><path d="M368.1688,161.7806 Q367.5906,162.0775 366.95,162.2181 Q366.3094,162.3744 365.6063,162.3744 Q363.1063,162.3744 361.7781,160.7338 Q360.4656,159.0775 360.4656,155.9525 Q360.4656,152.8275 361.7781,151.1713 Q363.1063,149.515 365.6063,149.515 Q366.3094,149.515 366.95,149.6713 Q367.6063,149.8275 368.1688,150.1244 L368.1688,152.8431 Q367.5438,152.265 366.95,151.9994 Q366.3563,151.7181 365.7313,151.7181 Q364.3875,151.7181 363.7,152.7963 Q363.0125,153.8588 363.0125,155.9525 Q363.0125,158.0463 363.7,159.1244 Q364.3875,160.1869 365.7313,160.1869 Q366.3563,160.1869 366.95,159.9213 Q367.5438,159.64 368.1688,159.0619 L368.1688,161.7806 Z " fill="#000000"/><text fill="#000000" font-family="sans-serif" font-size="14" lengthAdjust="spacing" textLength="83" x="380.8" y="160.9867">SyncService</text><line style="stroke:#181818;stroke-width:0.5;" x1="344" x2="473" y1="172.14" y2="172.14"/><line style="stroke:#181818;stroke-width:0.5;" x1="344" x2="473" y1="180.14" y2="180.14"/><ellipse cx="354" cy="193.7884" fill="#84BE84" rx="3" ry="3" style="stroke:#038048;stroke-width:1.0;"/><text fill="#000000" font-family="sans-serif" font-size="14" lengthAdjust="spacing" textLength="62" x="363" y="197.1351">fullSync()</text><rect fill="#F24D5C" height="6" style="stroke:#C82930;stroke-width:1.0;" width="6" x="351" y="207.0853"/><text fill="#000000" font-family="sans-serif" font-size="14" lengthAdjust="spacing" textLength="105" x="363" y="213.432">sync[Domain]()</text></g><!--class ApiService--><g id="elem_ApiService"><rect codeLine="20" fill="#F1F1F1" height="64.2969" id="ApiService" rx="2.5" ry="2.5" style="stroke:#181818;stroke-width:0.5;" width="103" x="560" y="314.03"/><ellipse cx="575" cy="330.03" fill="#ADD1B2" rx="11" ry="11" style="stroke:#181818;stroke-width:1.0;"/><path d="M577.9688,335.6706 Q577.3906,335.9675 576.75,336.1081 Q576.1094,336.2644 575.4063,336.2644 Q572.9063,336.2644 571.5781,334.6238 Q570.2656,332.9675 570.2656,329.8425 Q570.2656,326.7175 571.5781,325.0613 Q572.9063,323.405 575.4063,323.405 Q576.1094,323.405 576.75,323.5613 Q577.4063,323.7175 577.9688,324.0144 L577.9688,326.7331 Q577.3438,326.155 576.75,325.8894 Q576.1563,325.6081 575.5313,325.6081 Q574.1875,325.6081 573.5,326.6863 Q572.8125,327.7488 572.8125,329.8425 Q572.8125,331.9363 573.5,333.0144 Q574.1875,334.0769 575.5313,334.0769 Q576.1563,334.0769 576.75,333.8113 Q577.3438,333.53 577.9688,332.9519 L577.9688,335.6706 Z " fill="#000000"/><text fill="#000000" font-family="sans-serif" font-size="14" lengthAdjust="spacing" textLength="71" x="589" y="334.8767">ApiService</text><line style="stroke:#181818;stroke-width:0.5;" x1="561" x2="662" y1="346.03" y2="346.03"/><line style="stroke:#181818;stroke-width:0.5;" x1="561" x2="662" y1="354.03" y2="354.03"/><ellipse cx="571" cy="367.6784" fill="#84BE84" rx="3" ry="3" style="stroke:#038048;stroke-width:1.0;"/><text fill="#000000" font-family="sans-serif" font-size="14" lengthAdjust="spacing" textLength="45" x="580" y="371.0251">send()</text></g><!--reverse link UI Component to [Domain]Service--><g id="link_UI Component_[Domain]Service"><path codeLine="24" d="M338.6389,61.9155 C307.2689,82.3755 270.76,106.2 231.56,131.78 " fill="none" id="UI Component-backto-[Domain]Service" style="stroke:#181818;stroke-width:1.0;"/><polygon fill="#181818" points="348.69,55.36,341.4793,55.2874,338.6389,61.9155,345.8496,61.9881,348.69,55.36" style="stroke:#181818;stroke-width:1.0;"/><text fill="#000000" font-family="sans-serif" font-size="13" lengthAdjust="spacing" textLength="30" x="299.5" y="98.0669">uses</text></g><!--reverse link UI Component to [Domain]ApiService--><g id="link_UI Component_[Domain]ApiService"><path codeLine="25" d="M430.5335,61.8965 C462.0335,82.3565 498.74,106.2 538.12,131.78 " fill="none" id="UI Component-backto-[Domain]ApiService" style="stroke:#181818;stroke-width:1.0;"/><polygon fill="#181818" points="420.47,55.36,423.3229,61.9827,430.5335,61.8965,427.6806,55.2737,420.47,55.36" style="stroke:#181818;stroke-width:1.0;"/><text fill="#000000" font-family="sans-serif" font-size="13" lengthAdjust="spacing" textLength="30" x="491.5" y="98.0669">uses</text></g><!--link [Domain]Service to Internal[Domain]Service--><g id="link_[Domain]Service_Internal[Domain]Service"><path codeLine="27" d="M231.48,229.24 C268.52,253.5 297.9237,272.7555 333.0137,295.7455 " fill="none" id="[Domain]Service-to-Internal[Domain]Service" style="stroke:#181818;stroke-width:1.0;"/><polygon fill="none" points="348.07,305.61,336.3019,290.7268,329.7255,300.7643,348.07,305.61" style="stroke:#181818;stroke-width:1.0;"/><text fill="#000000" font-family="sans-serif" font-size="13" lengthAdjust="spacing" textLength="51" x="299.5" y="271.9569">extends</text></g><!--reverse link SyncService to Internal[Domain]Service--><g id="link_SyncService_Internal[Domain]Service"><path codeLine="28" d="M408.5,233.08 C408.5,258.73 408.5,279.99 408.5,305.63 " fill="none" id="SyncService-backto-Internal[Domain]Service" style="stroke:#181818;stroke-width:1.0;"/><polygon fill="#181818" points="408.5,221.08,404.5,227.08,408.5,233.08,412.5,227.08,408.5,221.08" style="stroke:#181818;stroke-width:1.0;"/><text fill="#000000" font-family="sans-serif" font-size="13" lengthAdjust="spacing" textLength="30" x="409.5" y="271.9569">uses</text></g><!--reverse link [Domain]ApiService to ApiService--><g id="link_[Domain]ApiService_ApiService"><path codeLine="30" d="M611.5,241.24 C611.5,268.43 611.5,289.71 611.5,313.64 " fill="none" id="[Domain]ApiService-backto-ApiService" style="stroke:#181818;stroke-width:1.0;"/><polygon fill="#181818" points="611.5,229.24,607.5,235.24,611.5,241.24,615.5,235.24,611.5,229.24" style="stroke:#181818;stroke-width:1.0;"/><text fill="#000000" font-family="sans-serif" font-size="13" lengthAdjust="spacing" textLength="30" x="612.5" y="271.9569">uses</text></g><!--reverse link [Domain]ApiService to Internal[Domain]Service--><g id="link_[Domain]ApiService_Internal[Domain]Service"><path codeLine="31" d="M542.8993,236.7734 C512.8193,261.0334 486.06,282.62 457.57,305.61 " fill="none" id="[Domain]ApiService-backto-Internal[Domain]Service" style="stroke:#181818;stroke-width:1.0;"/><polygon fill="#181818" points="552.24,229.24,545.0585,229.8931,542.8993,236.7734,550.0808,236.1203,552.24,229.24" style="stroke:#181818;stroke-width:1.0;"/><text fill="#000000" font-family="sans-serif" font-size="13" lengthAdjust="spacing" textLength="30" x="510.5" y="271.9569">uses</text></g><!--SRC=[XP9DJiCm48NtESKetQGWNo12bVZPT0LIn2fYOQS3f78SosD7HC3TSHpSX9IsgrZptiptPXGko1fUMQWa9uAjicWKb-L3s_1QlHHekhf2M77fFq8wXCy4u1gS9ZGsgoqsEKJtEaW6jUGL1eqciVJoTp9YBenV0JcnHvygXpjyvrtTccAit4pZDe7M2X-auq9Y3e-7zyB6VDuTjpWPA3jESwlha_k-eOssRBsiYBvyCgts1-cZgjtS7qdfynRksqQt2fLDVuj5hwh87M6lJigX6cOn8F_yPzWixjX6g7P1J_vou8enI1StJ_rj7I6TzKw8Wpqv7iJOrmRI4x_Eq8WVraUZPBvfu9pfMS3cIORMsV9nZrFMIvGV]--></g></svg>