<?xml version="1.0" encoding="us-ascii" standalone="no"?><svg xmlns="http://www.w3.org/2000/svg" xmlns:xlink="http://www.w3.org/1999/xlink" contentStyleType="text/css" height="218px" preserveAspectRatio="none" style="width:283px;height:218px;background:#FFFFFF;" version="1.1" viewBox="0 0 283 218" width="283px" zoomAndPan="magnify"><defs/><g><!--class [Domain]ApiService--><g id="elem_[Domain]ApiService"><rect codeLine="2" fill="#F0F8FF" height="80.5938" id="[Domain]ApiService" rx="2.5" ry="2.5" style="stroke:#181818;stroke-width:0.5;" width="206" x="45.5" y="7"/><ellipse cx="78.5" cy="23" fill="#ADD1B2" rx="11" ry="11" style="stroke:#181818;stroke-width:1.0;"/><path d="M81.4688,28.6406 Q80.8906,28.9375 80.25,29.0781 Q79.6094,29.2344 78.9063,29.2344 Q76.4063,29.2344 75.0781,27.5938 Q73.7656,25.9375 73.7656,22.8125 Q73.7656,19.6875 75.0781,18.0313 Q76.4063,16.375 78.9063,16.375 Q79.6094,16.375 80.25,16.5313 Q80.9063,16.6875 81.4688,16.9844 L81.4688,19.7031 Q80.8438,19.125 80.25,18.8594 Q79.6563,18.5781 79.0313,18.5781 Q77.6875,18.5781 77,19.6563 Q76.3125,20.7188 76.3125,22.8125 Q76.3125,24.9063 77,25.9844 Q77.6875,27.0469 79.0313,27.0469 Q79.6563,27.0469 80.25,26.7813 Q80.8438,26.5 81.4688,25.9219 L81.4688,28.6406 Z " fill="#000000"/><text fill="#000000" font-family="sans-serif" font-size="14" lengthAdjust="spacing" textLength="134" x="96.5" y="27.8467">[Domain]ApiService</text><line style="stroke:#181818;stroke-width:0.5;" x1="46.5" x2="250.5" y1="39" y2="39"/><line style="stroke:#181818;stroke-width:0.5;" x1="46.5" x2="250.5" y1="47" y2="47"/><ellipse cx="56.5" cy="60.6484" fill="#84BE84" rx="3" ry="3" style="stroke:#038048;stroke-width:1.0;"/><text fill="#000000" font-family="sans-serif" font-size="14" lengthAdjust="spacing" textLength="96" x="65.5" y="63.9951">get[Domain]()</text><ellipse cx="56.5" cy="76.9453" fill="#84BE84" rx="3" ry="3" style="stroke:#038048;stroke-width:1.0;"/><text fill="#000000" font-family="sans-serif" font-size="14" lengthAdjust="spacing" textLength="180" x="65.5" y="80.292">get[Domain]by[Property]()</text></g><!--class UI Component--><g id="elem_UI Component"><rect codeLine="6" fill="#F1F1F1" height="64.2969" id="UI Component" rx="2.5" ry="2.5" style="stroke:#181818;stroke-width:0.5;" width="131" x="7" y="147.59"/><ellipse cx="22" cy="163.59" fill="#ADD1B2" rx="11" ry="11" style="stroke:#181818;stroke-width:1.0;"/><path d="M24.9688,169.2306 Q24.3906,169.5275 23.75,169.6681 Q23.1094,169.8244 22.4063,169.8244 Q19.9063,169.8244 18.5781,168.1837 Q17.2656,166.5275 17.2656,163.4025 Q17.2656,160.2775 18.5781,158.6212 Q19.9063,156.965 22.4063,156.965 Q23.1094,156.965 23.75,157.1212 Q24.4063,157.2775 24.9688,157.5744 L24.9688,160.2931 Q24.3438,159.715 23.75,159.4494 Q23.1563,159.1681 22.5313,159.1681 Q21.1875,159.1681 20.5,160.2462 Q19.8125,161.3087 19.8125,163.4025 Q19.8125,165.4962 20.5,166.5744 Q21.1875,167.6369 22.5313,167.6369 Q23.1563,167.6369 23.75,167.3712 Q24.3438,167.09 24.9688,166.5119 L24.9688,169.2306 Z " fill="#000000"/><text fill="#000000" font-family="sans-serif" font-size="14" lengthAdjust="spacing" textLength="99" x="36" y="168.4367">UI Component</text><line style="stroke:#181818;stroke-width:0.5;" x1="8" x2="137" y1="179.59" y2="179.59"/><line style="stroke:#181818;stroke-width:0.5;" x1="8" x2="137" y1="187.59" y2="187.59"/><text fill="#000000" font-family="sans-serif" font-size="14" lengthAdjust="spacing" textLength="39" x="13" y="204.5851">load()</text></g><!--class ApiService--><g id="elem_ApiService"><rect codeLine="9" fill="#F1F1F1" height="64.2969" id="ApiService" rx="2.5" ry="2.5" style="stroke:#181818;stroke-width:0.5;" width="103" x="173" y="147.59"/><ellipse cx="188" cy="163.59" fill="#ADD1B2" rx="11" ry="11" style="stroke:#181818;stroke-width:1.0;"/><path d="M190.9688,169.2306 Q190.3906,169.5275 189.75,169.6681 Q189.1094,169.8244 188.4063,169.8244 Q185.9063,169.8244 184.5781,168.1837 Q183.2656,166.5275 183.2656,163.4025 Q183.2656,160.2775 184.5781,158.6212 Q185.9063,156.965 188.4063,156.965 Q189.1094,156.965 189.75,157.1212 Q190.4063,157.2775 190.9688,157.5744 L190.9688,160.2931 Q190.3438,159.715 189.75,159.4494 Q189.1563,159.1681 188.5313,159.1681 Q187.1875,159.1681 186.5,160.2462 Q185.8125,161.3087 185.8125,163.4025 Q185.8125,165.4962 186.5,166.5744 Q187.1875,167.6369 188.5313,167.6369 Q189.1563,167.6369 189.75,167.3712 Q190.3438,167.09 190.9688,166.5119 L190.9688,169.2306 Z " fill="#000000"/><text fill="#000000" font-family="sans-serif" font-size="14" lengthAdjust="spacing" textLength="71" x="202" y="168.4367">ApiService</text><line style="stroke:#181818;stroke-width:0.5;" x1="174" x2="275" y1="179.59" y2="179.59"/><line style="stroke:#181818;stroke-width:0.5;" x1="174" x2="275" y1="187.59" y2="187.59"/><ellipse cx="184" cy="201.2384" fill="#84BE84" rx="3" ry="3" style="stroke:#038048;stroke-width:1.0;"/><text fill="#000000" font-family="sans-serif" font-size="14" lengthAdjust="spacing" textLength="45" x="193" y="204.5851">send()</text></g><!--link UI Component to [Domain]ApiService--><g id="link_UI Component_[Domain]ApiService"><path codeLine="13" d="M102.6,147.24 C115.06,129.37 125.7455,112.1909 135.3155,93.1509 " fill="none" id="UI Component-to-[Domain]ApiService" style="stroke:#181818;stroke-width:1.0;"/><polygon fill="#181818" points="138.01,87.79,130.3942,94.035,135.7646,92.2574,137.5421,97.6277,138.01,87.79" style="stroke:#181818;stroke-width:1.0;"/></g><!--link [Domain]ApiService to UI Component--><g id="link_[Domain]ApiService_UI Component"><path codeLine="16" d="M113.67,87.79 C101.13,106.83 90.8123,123.9494 82.3323,141.8194 " fill="none" id="[Domain]ApiService-to-UI Component" style="stroke:#181818;stroke-width:1.0;"/><polygon fill="#181818" points="79.76,147.24,87.2322,140.8239,81.9036,142.7228,80.0047,137.3942,79.76,147.24" style="stroke:#181818;stroke-width:1.0;"/></g><!--link [Domain]ApiService to ApiService--><g id="link_[Domain]ApiService_ApiService"><path codeLine="14" d="M159.68,87.79 C169.34,106.83 179.3006,124.4328 191.6406,142.3028 " fill="none" id="[Domain]ApiService-to-ApiService" style="stroke:#181818;stroke-width:1.0;"/><polygon fill="#181818" points="195.05,147.24,193.2274,137.5612,192.2089,143.1256,186.6445,142.1071,195.05,147.24" style="stroke:#181818;stroke-width:1.0;"/></g><!--link ApiService to [Domain]ApiService--><g id="link_ApiService_[Domain]ApiService"><path codeLine="15" d="M217.89,147.24 C209.52,129.37 199.9649,111.8312 187.3449,92.7912 " fill="none" id="ApiService-to-[Domain]ApiService" style="stroke:#181818;stroke-width:1.0;"/><polygon fill="#181818" points="184.03,87.79,185.6682,97.5017,186.7924,91.9576,192.3364,93.0819,184.03,87.79" style="stroke:#181818;stroke-width:1.0;"/></g><!--SRC=[Iyv9B2vMY7R9pqtCp8jrBCWCJYqgoqnELL1Ep05IIJcbgGhLN0eAsWhfgIKmPHgQw299bT41HVa5gKKbbI3PMgvaiBbAePuAplcv1VbvgNabIc2351HoyXDJaDGWsGcng3Wr3oBFXQPTLzTEGGdJgKfSs0J1gX5yBYHhI3S7rI40]--></g></svg>