<?xml version="1.0" encoding="us-ascii" standalone="no"?><svg xmlns="http://www.w3.org/2000/svg" xmlns:xlink="http://www.w3.org/1999/xlink" contentStyleType="text/css" height="350px" preserveAspectRatio="none" style="width:1070px;height:350px;background:#FFFFFF;" version="1.1" viewBox="0 0 1070 350" width="1070px" zoomAndPan="magnify"><defs/><g><text fill="#000000" font-family="sans-serif" font-size="14" font-weight="bold" lengthAdjust="spacing" textLength="26" x="523.75" y="27.9951">iOS</text><rect fill="none" height="175.7969" style="stroke:#000000;stroke-width:1.5;" width="1054.5" x="10" y="107.5938"/><line style="stroke:#181818;stroke-width:0.5;stroke-dasharray:5.0,5.0;" x1="46" x2="46" y1="90.5938" y2="300.3906"/><line style="stroke:#181818;stroke-width:0.5;stroke-dasharray:5.0,5.0;" x1="245.5" x2="245.5" y1="90.5938" y2="300.3906"/><line style="stroke:#181818;stroke-width:0.5;stroke-dasharray:5.0,5.0;" x1="448" x2="448" y1="90.5938" y2="300.3906"/><line style="stroke:#181818;stroke-width:0.5;stroke-dasharray:5.0,5.0;" x1="733" x2="733" y1="90.5938" y2="300.3906"/><line style="stroke:#181818;stroke-width:0.5;stroke-dasharray:5.0,5.0;" x1="945.5" x2="945.5" y1="90.5938" y2="300.3906"/><rect fill="#E2E2F0" height="30.2969" rx="2.5" ry="2.5" style="stroke:#181818;stroke-width:0.5;" width="52" x="20" y="59.2969"/><text fill="#000000" font-family="sans-serif" font-size="14" lengthAdjust="spacing" textLength="38" x="27" y="79.292">Caller</text><rect fill="#E2E2F0" height="30.2969" rx="2.5" ry="2.5" style="stroke:#181818;stroke-width:0.5;" width="52" x="20" y="299.3906"/><text fill="#000000" font-family="sans-serif" font-size="14" lengthAdjust="spacing" textLength="38" x="27" y="319.3857">Caller</text><rect fill="#E2E2F0" height="30.2969" rx="2.5" ry="2.5" style="stroke:#181818;stroke-width:0.5;" width="189" x="151.5" y="59.2969"/><text fill="#000000" font-family="sans-serif" font-size="14" lengthAdjust="spacing" textLength="175" x="158.5" y="79.292">BaseWatchDeviceService</text><rect fill="#E2E2F0" height="30.2969" rx="2.5" ry="2.5" style="stroke:#181818;stroke-width:0.5;" width="189" x="151.5" y="299.3906"/><text fill="#000000" font-family="sans-serif" font-size="14" lengthAdjust="spacing" textLength="175" x="158.5" y="319.3857">BaseWatchDeviceService</text><rect fill="#E2E2F0" height="30.2969" rx="2.5" ry="2.5" style="stroke:#181818;stroke-width:0.5;" width="154" x="371" y="59.2969"/><text fill="#000000" font-family="sans-serif" font-size="14" lengthAdjust="spacing" textLength="140" x="378" y="79.292">WatchDeviceService</text><rect fill="#E2E2F0" height="30.2969" rx="2.5" ry="2.5" style="stroke:#181818;stroke-width:0.5;" width="154" x="371" y="299.3906"/><text fill="#000000" font-family="sans-serif" font-size="14" lengthAdjust="spacing" textLength="140" x="378" y="319.3857">WatchDeviceService</text><rect fill="#E2E2F0" height="30.2969" rx="2.5" ry="2.5" style="stroke:#181818;stroke-width:0.5;" width="152" x="657" y="59.2969"/><text fill="#000000" font-family="sans-serif" font-size="14" lengthAdjust="spacing" textLength="138" x="664" y="79.292">WCSessionManager</text><rect fill="#E2E2F0" height="30.2969" rx="2.5" ry="2.5" style="stroke:#181818;stroke-width:0.5;" width="152" x="657" y="299.3906"/><text fill="#000000" font-family="sans-serif" font-size="14" lengthAdjust="spacing" textLength="138" x="664" y="319.3857">WCSessionManager</text><text fill="#000000" font-family="sans-serif" font-size="14" lengthAdjust="spacing" textLength="211" x="837.5" y="87.292">Watch Connectivity Framework</text><path d="M925.5,46.2969 L925.5,70.2969 M925.5,58.2969 L942.5,58.2969 " fill="none" style="stroke:#181818;stroke-width:0.5;"/><ellipse cx="954.5" cy="58.2969" fill="#E2E2F0" rx="12" ry="12" style="stroke:#181818;stroke-width:0.5;"/><text fill="#000000" font-family="sans-serif" font-size="14" lengthAdjust="spacing" textLength="211" x="837.5" y="312.3857">Watch Connectivity Framework</text><path d="M925.5,319.6875 L925.5,343.6875 M925.5,331.6875 L942.5,331.6875 " fill="none" style="stroke:#181818;stroke-width:0.5;"/><ellipse cx="954.5" cy="331.6875" fill="#E2E2F0" rx="12" ry="12" style="stroke:#181818;stroke-width:0.5;"/><path d="M10,107.5938 L89,107.5938 L89,114.7266 L79,124.7266 L10,124.7266 L10,107.5938 " fill="#EEEEEE" style="stroke:#000000;stroke-width:1.5;"/><rect fill="none" height="175.7969" style="stroke:#000000;stroke-width:1.5;" width="1054.5" x="10" y="107.5938"/><text fill="#000000" font-family="sans-serif" font-size="13" font-weight="bold" lengthAdjust="spacing" textLength="34" x="25" y="120.6606">Sync</text><line style="stroke:#181818;stroke-width:1.0;" x1="244" x2="234" y1="145.8594" y2="141.8594"/><line style="stroke:#181818;stroke-width:1.0;" x1="244" x2="234" y1="145.8594" y2="149.8594"/><line style="stroke:#181818;stroke-width:1.0;" x1="46" x2="245" y1="145.8594" y2="145.8594"/><text fill="#000000" font-family="sans-serif" font-size="13" lengthAdjust="spacing" textLength="176" x="53" y="140.7935">SyncDataToWatchAsync(...)</text><line style="stroke:#181818;stroke-width:1.0;" x1="246" x2="288" y1="174.9922" y2="174.9922"/><line style="stroke:#181818;stroke-width:1.0;" x1="288" x2="288" y1="174.9922" y2="187.9922"/><line style="stroke:#181818;stroke-width:1.0;" x1="247" x2="288" y1="187.9922" y2="187.9922"/><polygon fill="#181818" points="257,183.9922,247,187.9922,257,191.9922,253,187.9922" style="stroke:#181818;stroke-width:1.0;"/><text fill="#000000" font-family="sans-serif" font-size="13" lengthAdjust="spacing" textLength="118" x="253" y="169.9263">GetStateAsync(...)</text><line style="stroke:#181818;stroke-width:1.0;" x1="446" x2="436" y1="217.125" y2="213.125"/><line style="stroke:#181818;stroke-width:1.0;" x1="446" x2="436" y1="217.125" y2="221.125"/><line style="stroke:#181818;stroke-width:1.0;" x1="246" x2="447" y1="217.125" y2="217.125"/><text fill="#000000" font-family="sans-serif" font-size="13" lengthAdjust="spacing" textLength="178" x="253" y="212.0591">SendDataToWatchAsync(...)</text><line style="stroke:#181818;stroke-width:1.0;" x1="731" x2="721" y1="246.2578" y2="242.2578"/><line style="stroke:#181818;stroke-width:1.0;" x1="731" x2="721" y1="246.2578" y2="250.2578"/><line style="stroke:#181818;stroke-width:1.0;" x1="448" x2="732" y1="246.2578" y2="246.2578"/><text fill="#000000" font-family="sans-serif" font-size="13" lengthAdjust="spacing" textLength="261" x="455" y="241.1919">SendBackgroundHighPriorityMessage(...)</text><line style="stroke:#181818;stroke-width:1.0;" x1="944" x2="934" y1="275.3906" y2="271.3906"/><line style="stroke:#181818;stroke-width:1.0;" x1="944" x2="934" y1="275.3906" y2="279.3906"/><line style="stroke:#181818;stroke-width:1.0;" x1="733" x2="945" y1="275.3906" y2="275.3906"/><text fill="#000000" font-family="sans-serif" font-size="13" lengthAdjust="spacing" textLength="189" x="740" y="270.3247">UpdateApplicationContext(...)</text><!--SRC=[XOz1JyCm38Nl-HLHJt1OVy0EbMYgiai5Ka0xczJgh9KaIhr1_prEMuGca3XPrlly_1uJZwZfoIeL8J4vYk1P6msJBWoC8wRYHgcFZLt46YOy0hjJWrToQ37bSGj_i_zondOhQ2nE4mNVWOSX_tuB5zz3ceLfVxoq2TwZOxeIpxfDy8uV8PqBfOOKBb7RsJjbTbMLu-wNjG66bx1SFqootvLbUQ-oljkeHsJBmFXBhbOJzFtV9Xia9LQg1dVEENn_eE7qd2WaYTb9C-cqdGYytBHx_Hhx_3N6aHomb9ToZ9-yakBt1G00]--></g></svg>