<?xml version="1.0" encoding="us-ascii" standalone="no"?><svg xmlns="http://www.w3.org/2000/svg" xmlns:xlink="http://www.w3.org/1999/xlink" contentStyleType="text/css" height="233px" preserveAspectRatio="none" style="width:1110px;height:233px;background:#FFFFFF;" version="1.1" viewBox="0 0 1110 233" width="1110px" zoomAndPan="magnify"><defs/><g><rect fill="#B8B8B8" height="221.2578" style="stroke:#181818;stroke-width:0.5;" width="470" x="1" y="6"/><text fill="#000000" font-family="sans-serif" font-size="13" font-weight="bold" lengthAdjust="spacing" textLength="114" x="179" y="18.0669">Content Scripts</text><rect fill="#E5E8E8" height="221.2578" style="stroke:#181818;stroke-width:0.5;" width="631" x="473" y="6"/><text fill="#000000" font-family="sans-serif" font-size="13" font-weight="bold" lengthAdjust="spacing" textLength="140" x="718.5" y="18.0669">Background Pages</text><line style="stroke:#181818;stroke-width:0.5;stroke-dasharray:5.0,5.0;" x1="41" x2="41" y1="56.4297" y2="192.9609"/><line style="stroke:#181818;stroke-width:0.5;stroke-dasharray:5.0,5.0;" x1="402" x2="402" y1="56.4297" y2="192.9609"/><line style="stroke:#181818;stroke-width:0.5;stroke-dasharray:5.0,5.0;" x1="573" x2="573" y1="56.4297" y2="192.9609"/><line style="stroke:#181818;stroke-width:0.5;stroke-dasharray:5.0,5.0;" x1="765" x2="765" y1="56.4297" y2="192.9609"/><line style="stroke:#181818;stroke-width:0.5;stroke-dasharray:5.0,5.0;" x1="1024" x2="1024" y1="56.4297" y2="192.9609"/><rect fill="#E2E2F0" height="30.2969" rx="2.5" ry="2.5" style="stroke:#181818;stroke-width:0.5;" width="73" x="5" y="25.1328"/><text fill="#000000" font-family="sans-serif" font-size="14" lengthAdjust="spacing" textLength="59" x="12" y="45.1279">autofill.js</text><rect fill="#E2E2F0" height="30.2969" rx="2.5" ry="2.5" style="stroke:#181818;stroke-width:0.5;" width="73" x="5" y="191.9609"/><text fill="#000000" font-family="sans-serif" font-size="14" lengthAdjust="spacing" textLength="59" x="12" y="211.9561">autofill.js</text><rect fill="#E2E2F0" height="30.2969" rx="2.5" ry="2.5" style="stroke:#181818;stroke-width:0.5;" width="129" x="338" y="25.1328"/><text fill="#000000" font-family="sans-serif" font-size="14" lengthAdjust="spacing" textLength="115" x="345" y="45.1279">notificationBar.ts</text><rect fill="#E2E2F0" height="30.2969" rx="2.5" ry="2.5" style="stroke:#181818;stroke-width:0.5;" width="129" x="338" y="191.9609"/><text fill="#000000" font-family="sans-serif" font-size="14" lengthAdjust="spacing" textLength="115" x="345" y="211.9561">notificationBar.ts</text><rect fill="#E2E2F0" height="30.2969" rx="2.5" ry="2.5" style="stroke:#181818;stroke-width:0.5;" width="193" x="477" y="25.1328"/><text fill="#000000" font-family="sans-serif" font-size="14" lengthAdjust="spacing" textLength="179" x="484" y="45.1279">notification.background.ts</text><rect fill="#E2E2F0" height="30.2969" rx="2.5" ry="2.5" style="stroke:#181818;stroke-width:0.5;" width="193" x="477" y="191.9609"/><text fill="#000000" font-family="sans-serif" font-size="14" lengthAdjust="spacing" textLength="179" x="484" y="211.9561">notification.background.ts</text><rect fill="#E2E2F0" height="30.2969" rx="2.5" ry="2.5" style="stroke:#181818;stroke-width:0.5;" width="171" x="680" y="25.1328"/><text fill="#000000" font-family="sans-serif" font-size="14" lengthAdjust="spacing" textLength="157" x="687" y="45.1279">runtime.background.ts</text><rect fill="#E2E2F0" height="30.2969" rx="2.5" ry="2.5" style="stroke:#181818;stroke-width:0.5;" width="171" x="680" y="191.9609"/><text fill="#000000" font-family="sans-serif" font-size="14" lengthAdjust="spacing" textLength="157" x="687" y="211.9561">runtime.background.ts</text><rect fill="#E2E2F0" height="30.2969" rx="2.5" ry="2.5" style="stroke:#181818;stroke-width:0.5;" width="151" x="949" y="25.1328"/><text fill="#000000" font-family="sans-serif" font-size="14" lengthAdjust="spacing" textLength="137" x="956" y="45.1279">main.background.ts</text><rect fill="#E2E2F0" height="30.2969" rx="2.5" ry="2.5" style="stroke:#181818;stroke-width:0.5;" width="151" x="949" y="191.9609"/><text fill="#000000" font-family="sans-serif" font-size="14" lengthAdjust="spacing" textLength="137" x="956" y="211.9561">main.background.ts</text><polygon fill="#181818" points="753.5,83.5625,763.5,87.5625,753.5,91.5625,757.5,87.5625" style="stroke:#181818;stroke-width:1.0;"/><line style="stroke:#181818;stroke-width:1.0;" x1="402.5" x2="759.5" y1="87.5625" y2="87.5625"/><text fill="#000000" font-family="sans-serif" font-size="13" lengthAdjust="spacing" textLength="293" x="409.5" y="82.4966">bgCollectPageDetails [sender: notificationBar]</text><polygon fill="#181818" points="1012.5,112.6953,1022.5,116.6953,1012.5,120.6953,1016.5,116.6953" style="stroke:#181818;stroke-width:1.0;"/><line style="stroke:#181818;stroke-width:1.0;stroke-dasharray:2.0,2.0;" x1="765.5" x2="1018.5" y1="116.6953" y2="116.6953"/><text fill="#000000" font-family="sans-serif" font-size="13" lengthAdjust="spacing" textLength="235" x="772.5" y="111.6294">collectPageDetailsForContentScript()</text><polygon fill="#181818" points="52.5,141.8281,42.5,145.8281,52.5,149.8281,48.5,145.8281" style="stroke:#181818;stroke-width:1.0;"/><line style="stroke:#181818;stroke-width:1.0;" x1="46.5" x2="1023.5" y1="145.8281" y2="145.8281"/><text fill="#000000" font-family="sans-serif" font-size="13" lengthAdjust="spacing" textLength="275" x="58.5" y="140.7622">collectPageDetails [sender: notificationBar]</text><polygon fill="#181818" points="390.5,170.9609,400.5,174.9609,390.5,178.9609,394.5,174.9609" style="stroke:#181818;stroke-width:1.0;"/><line style="stroke:#181818;stroke-width:1.0;" x1="41.5" x2="396.5" y1="174.9609" y2="174.9609"/><text fill="#000000" font-family="sans-serif" font-size="13" lengthAdjust="spacing" textLength="337" x="48.5" y="169.895">collectPageDetailsResponse [sender: notificationBar]</text><!--SRC=[VP4nRy8m48Lt_mgBBdGW6rB4q24qdIiwLWndzuYk65zaNoH-VcqWGGafykIxzxtdyna-wyMMlQ0N_MK3jH8N-gKgyr4j125BBQGcTC87SgxuZHhYS1rfF0iTo88G-mf28HVffAhG_sZ3PwLC3g_07fl0NIf-GeCvlLxNPLt-wroO0Pb9666Xyq8dV2HkZP7u13JZdQlt9qzcqQkttaflj6csx1nQoOEyem2vgBzZWZ5ifj-mLpsuIYOv9JdO1_w3msqzr-qiNzL5cvX-1RFSazo1InwJvfpJ3cFBFk8Jnpy0]--></g></svg>