<?xml version="1.0" encoding="us-ascii" standalone="no"?><svg xmlns="http://www.w3.org/2000/svg" xmlns:xlink="http://www.w3.org/1999/xlink" contentStyleType="text/css" height="447px" preserveAspectRatio="none" style="width:881px;height:447px;background:#FFFFFF;" version="1.1" viewBox="0 0 881 447" width="881px" zoomAndPan="magnify"><defs/><g><rect fill="#B8B8B8" height="435.7891" style="stroke:#181818;stroke-width:0.5;" width="120" x="74" y="6"/><text fill="#000000" font-family="sans-serif" font-size="13" font-weight="bold" lengthAdjust="spacing" textLength="114" x="77" y="18.0669">Content Scripts</text><rect fill="#7A7A7A" height="435.7891" style="stroke:#181818;stroke-width:0.5;" width="355" x="514" y="6"/><text fill="#000000" font-family="sans-serif" font-size="13" font-weight="bold" lengthAdjust="spacing" textLength="90" x="646.5" y="18.0669">Extension UI</text><rect fill="none" height="104.5313" style="stroke:#000000;stroke-width:1.5;" width="653" x="20" y="98.2969"/><rect fill="none" height="104.5313" style="stroke:#000000;stroke-width:1.5;" width="855" x="20" y="240.9609"/><line style="stroke:#181818;stroke-width:0.5;stroke-dasharray:5.0,5.0;" x1="49" x2="49" y1="81.2969" y2="362.4922"/><line style="stroke:#181818;stroke-width:0.5;stroke-dasharray:5.0,5.0;" x1="133.5" x2="133.5" y1="81.2969" y2="362.4922"/><line style="stroke:#181818;stroke-width:0.5;stroke-dasharray:5.0,5.0;" x1="590" x2="590" y1="81.2969" y2="362.4922"/><line style="stroke:#181818;stroke-width:0.5;stroke-dasharray:5.0,5.0;" x1="769" x2="769" y1="81.2969" y2="362.4922"/><text fill="#000000" font-family="sans-serif" font-size="14" lengthAdjust="spacing" textLength="32" x="30" y="77.9951">User</text><ellipse cx="49" cy="13.5" fill="#E2E2F0" rx="8" ry="8" style="stroke:#181818;stroke-width:0.5;"/><path d="M49,21.5 L49,48.5 M36,29.5 L62,29.5 M49,48.5 L36,63.5 M49,48.5 L62,63.5 " fill="none" style="stroke:#181818;stroke-width:0.5;"/><text fill="#000000" font-family="sans-serif" font-size="14" lengthAdjust="spacing" textLength="32" x="30" y="374.4873">User</text><ellipse cx="49" cy="386.2891" fill="#E2E2F0" rx="8" ry="8" style="stroke:#181818;stroke-width:0.5;"/><path d="M49,394.2891 L49,421.2891 M36,402.2891 L62,402.2891 M49,421.2891 L36,436.2891 M49,421.2891 L62,436.2891 " fill="none" style="stroke:#181818;stroke-width:0.5;"/><rect fill="#E2E2F0" height="30.2969" rx="2.5" ry="2.5" style="stroke:#181818;stroke-width:0.5;" width="73" x="97.5" y="50"/><text fill="#000000" font-family="sans-serif" font-size="14" lengthAdjust="spacing" textLength="59" x="104.5" y="69.9951">autofill.js</text><rect fill="#E2E2F0" height="30.2969" rx="2.5" ry="2.5" style="stroke:#181818;stroke-width:0.5;" width="73" x="97.5" y="361.4922"/><text fill="#000000" font-family="sans-serif" font-size="14" lengthAdjust="spacing" textLength="59" x="104.5" y="381.4873">autofill.js</text><rect fill="#E2E2F0" height="30.2969" rx="2.5" ry="2.5" style="stroke:#181818;stroke-width:0.5;" width="145" x="518" y="50"/><text fill="#000000" font-family="sans-serif" font-size="14" lengthAdjust="spacing" textLength="131" x="525" y="69.9951">view.component.ts</text><rect fill="#E2E2F0" height="30.2969" rx="2.5" ry="2.5" style="stroke:#181818;stroke-width:0.5;" width="145" x="518" y="361.4922"/><text fill="#000000" font-family="sans-serif" font-size="14" lengthAdjust="spacing" textLength="131" x="525" y="381.4873">view.component.ts</text><rect fill="#E2E2F0" height="30.2969" rx="2.5" ry="2.5" style="stroke:#181818;stroke-width:0.5;" width="192" x="673" y="50"/><text fill="#000000" font-family="sans-serif" font-size="14" lengthAdjust="spacing" textLength="178" x="680" y="69.9951">current-tab.component.ts</text><rect fill="#E2E2F0" height="30.2969" rx="2.5" ry="2.5" style="stroke:#181818;stroke-width:0.5;" width="192" x="673" y="361.4922"/><text fill="#000000" font-family="sans-serif" font-size="14" lengthAdjust="spacing" textLength="178" x="680" y="381.4873">current-tab.component.ts</text><path d="M20,98.2969 L235,98.2969 L235,105.4297 L225,115.4297 L20,115.4297 L20,98.2969 " fill="#EEEEEE" style="stroke:#000000;stroke-width:1.5;"/><rect fill="none" height="104.5313" style="stroke:#000000;stroke-width:1.5;" width="653" x="20" y="98.2969"/><text fill="#000000" font-family="sans-serif" font-size="13" font-weight="bold" lengthAdjust="spacing" textLength="170" x="35" y="111.3638">Autofill from Item View</text><polygon fill="#181818" points="578.5,132.5625,588.5,136.5625,578.5,140.5625,582.5,136.5625" style="stroke:#181818;stroke-width:1.0;"/><line style="stroke:#181818;stroke-width:1.0;stroke-dasharray:2.0,2.0;" x1="49" x2="584.5" y1="136.5625" y2="136.5625"/><text fill="#000000" font-family="sans-serif" font-size="13" lengthAdjust="spacing" textLength="130" x="56" y="131.4966">Clicks Autofill Button</text><polygon fill="#181818" points="145,161.6953,135,165.6953,145,169.6953,141,165.6953" style="stroke:#181818;stroke-width:1.0;"/><line style="stroke:#181818;stroke-width:1.0;" x1="139" x2="589.5" y1="165.6953" y2="165.6953"/><text fill="#000000" font-family="sans-serif" font-size="13" lengthAdjust="spacing" textLength="351" x="151" y="160.6294">collectPageDetails [sender: BroadcasterSubscriptionId]</text><polygon fill="#181818" points="578.5,190.8281,588.5,194.8281,578.5,198.8281,582.5,194.8281" style="stroke:#181818;stroke-width:1.0;"/><line style="stroke:#181818;stroke-width:1.0;stroke-dasharray:2.0,2.0;" x1="134" x2="584.5" y1="194.8281" y2="194.8281"/><text fill="#000000" font-family="sans-serif" font-size="13" lengthAdjust="spacing" textLength="413" x="141" y="189.7622">collectPageDetailsResponse [sender: BroadcasterSubscriptionId]</text><path d="M20,240.9609 L289,240.9609 L289,248.0938 L279,258.0938 L20,258.0938 L20,240.9609 " fill="#EEEEEE" style="stroke:#000000;stroke-width:1.5;"/><rect fill="none" height="104.5313" style="stroke:#000000;stroke-width:1.5;" width="855" x="20" y="240.9609"/><text fill="#000000" font-family="sans-serif" font-size="13" font-weight="bold" lengthAdjust="spacing" textLength="224" x="35" y="254.0278">Autofill from Current Tab View</text><polygon fill="#181818" points="757,275.2266,767,279.2266,757,283.2266,761,279.2266" style="stroke:#181818;stroke-width:1.0;"/><line style="stroke:#181818;stroke-width:1.0;stroke-dasharray:2.0,2.0;" x1="49" x2="763" y1="279.2266" y2="279.2266"/><text fill="#000000" font-family="sans-serif" font-size="13" lengthAdjust="spacing" textLength="148" x="56" y="274.1606">Clicks Autofill on Cipher</text><polygon fill="#181818" points="145,304.3594,135,308.3594,145,312.3594,141,308.3594" style="stroke:#181818;stroke-width:1.0;"/><line style="stroke:#181818;stroke-width:1.0;" x1="139" x2="768" y1="308.3594" y2="308.3594"/><text fill="#000000" font-family="sans-serif" font-size="13" lengthAdjust="spacing" textLength="351" x="151" y="303.2935">collectPageDetails [sender: BroadcasterSubscriptionId]</text><polygon fill="#181818" points="757,333.4922,767,337.4922,757,341.4922,761,337.4922" style="stroke:#181818;stroke-width:1.0;"/><line style="stroke:#181818;stroke-width:1.0;stroke-dasharray:2.0,2.0;" x1="134" x2="763" y1="337.4922" y2="337.4922"/><text fill="#000000" font-family="sans-serif" font-size="13" lengthAdjust="spacing" textLength="413" x="141" y="332.4263">collectPageDetailsResponse [sender: BroadcasterSubscriptionId]</text><!--SRC=[jP8nKyCm38Nt_0fTc9CLhWDtJM38nb7AmZ4uZbfC7JidAz2VZnBI1bypCC1vYgJtzFmvIhCds0Qa9Adz4TBIEqR7iD5aEWufN1KtmqawHMoqwPGqLSz-PwpDtmEeSFvCq3KWBfFL_L6SWl4EjfNuNA-74_by6FpCjMyxxsHdpgFRK2nFjMWyrJsH53DMTIHB1ztKV5Brd6DFlkzWFUM37VaMAiOMdcL90kF58SjkuwMmWj8QVGYpikYPlHD5F2ZAq-L5fBsrgFb1xV4EMHaRu2L85gGL5EHLerLWf4rVXv6keAcQLp4zUon5kNHzn23TWBzo7rYC6EHL2DLX6Khv3G-4tWMR6Um267dTqdHlyl_0py7_01Fb-3CgNm00]--></g></svg>