<?xml version="1.0" encoding="us-ascii" standalone="no"?><svg xmlns="http://www.w3.org/2000/svg" xmlns:xlink="http://www.w3.org/1999/xlink" contentStyleType="text/css" height="287px" preserveAspectRatio="none" style="width:888px;height:287px;background:#FFFFFF;" version="1.1" viewBox="0 0 888 287" width="888px" zoomAndPan="magnify"><defs/><g><rect fill="#B8B8B8" height="275.9922" style="stroke:#181818;stroke-width:0.5;" width="120" x="219" y="6"/><text fill="#000000" font-family="sans-serif" font-size="13" font-weight="bold" lengthAdjust="spacing" textLength="114" x="222" y="18.0669">Content Scripts</text><rect fill="#E5E8E8" height="275.9922" style="stroke:#181818;stroke-width:0.5;" width="406" x="476" y="6"/><text fill="#000000" font-family="sans-serif" font-size="13" font-weight="bold" lengthAdjust="spacing" textLength="140" x="609" y="18.0669">Background Pages</text><line style="stroke:#181818;stroke-width:0.5;stroke-dasharray:5.0,5.0;" x1="24" x2="24" y1="81.2969" y2="202.6953"/><line style="stroke:#181818;stroke-width:0.5;stroke-dasharray:5.0,5.0;" x1="133" x2="133" y1="81.2969" y2="202.6953"/><line style="stroke:#181818;stroke-width:0.5;stroke-dasharray:5.0,5.0;" x1="278.5" x2="278.5" y1="81.2969" y2="202.6953"/><line style="stroke:#181818;stroke-width:0.5;stroke-dasharray:5.0,5.0;" x1="588" x2="588" y1="81.2969" y2="202.6953"/><line style="stroke:#181818;stroke-width:0.5;stroke-dasharray:5.0,5.0;" x1="792" x2="792" y1="81.2969" y2="202.6953"/><text fill="#000000" font-family="sans-serif" font-size="14" lengthAdjust="spacing" textLength="32" x="5" y="77.9951">User</text><ellipse cx="24" cy="13.5" fill="#E2E2F0" rx="8" ry="8" style="stroke:#181818;stroke-width:0.5;"/><path d="M24,21.5 L24,48.5 M11,29.5 L37,29.5 M24,48.5 L11,63.5 M24,48.5 L37,63.5 " fill="none" style="stroke:#181818;stroke-width:0.5;"/><text fill="#000000" font-family="sans-serif" font-size="14" lengthAdjust="spacing" textLength="32" x="5" y="214.6904">User</text><ellipse cx="24" cy="226.4922" fill="#E2E2F0" rx="8" ry="8" style="stroke:#181818;stroke-width:0.5;"/><path d="M24,234.4922 L24,261.4922 M11,242.4922 L37,242.4922 M24,261.4922 L11,276.4922 M24,261.4922 L37,276.4922 " fill="none" style="stroke:#181818;stroke-width:0.5;"/><rect fill="#E2E2F0" height="30.2969" rx="2.5" ry="2.5" style="stroke:#181818;stroke-width:0.5;" width="160" x="53" y="50"/><text fill="#000000" font-family="sans-serif" font-size="14" lengthAdjust="spacing" textLength="146" x="60" y="69.9951">Autofill Context Menu</text><rect fill="#E2E2F0" height="30.2969" rx="2.5" ry="2.5" style="stroke:#181818;stroke-width:0.5;" width="160" x="53" y="201.6953"/><text fill="#000000" font-family="sans-serif" font-size="14" lengthAdjust="spacing" textLength="146" x="60" y="221.6904">Autofill Context Menu</text><rect fill="#E2E2F0" height="30.2969" rx="2.5" ry="2.5" style="stroke:#181818;stroke-width:0.5;" width="73" x="242.5" y="50"/><text fill="#000000" font-family="sans-serif" font-size="14" lengthAdjust="spacing" textLength="59" x="249.5" y="69.9951">autofill.js</text><rect fill="#E2E2F0" height="30.2969" rx="2.5" ry="2.5" style="stroke:#181818;stroke-width:0.5;" width="73" x="242.5" y="201.6953"/><text fill="#000000" font-family="sans-serif" font-size="14" lengthAdjust="spacing" textLength="59" x="249.5" y="221.6904">autofill.js</text><rect fill="#E2E2F0" height="30.2969" rx="2.5" ry="2.5" style="stroke:#181818;stroke-width:0.5;" width="217" x="480" y="50"/><text fill="#000000" font-family="sans-serif" font-size="14" lengthAdjust="spacing" textLength="203" x="487" y="69.9951">contextMenus.background.ts</text><rect fill="#E2E2F0" height="30.2969" rx="2.5" ry="2.5" style="stroke:#181818;stroke-width:0.5;" width="217" x="480" y="201.6953"/><text fill="#000000" font-family="sans-serif" font-size="14" lengthAdjust="spacing" textLength="203" x="487" y="221.6904">contextMenus.background.ts</text><rect fill="#E2E2F0" height="30.2969" rx="2.5" ry="2.5" style="stroke:#181818;stroke-width:0.5;" width="171" x="707" y="50"/><text fill="#000000" font-family="sans-serif" font-size="14" lengthAdjust="spacing" textLength="157" x="714" y="69.9951">runtime.background.ts</text><rect fill="#E2E2F0" height="30.2969" rx="2.5" ry="2.5" style="stroke:#181818;stroke-width:0.5;" width="171" x="707" y="201.6953"/><text fill="#000000" font-family="sans-serif" font-size="14" lengthAdjust="spacing" textLength="157" x="714" y="221.6904">runtime.background.ts</text><polygon fill="#181818" points="121,93.2969,131,97.2969,121,101.2969,125,97.2969" style="stroke:#181818;stroke-width:1.0;"/><line style="stroke:#181818;stroke-width:1.0;stroke-dasharray:2.0,2.0;" x1="24" x2="127" y1="97.2969" y2="97.2969"/><polygon fill="#181818" points="576.5,122.4297,586.5,126.4297,576.5,130.4297,580.5,126.4297" style="stroke:#181818;stroke-width:1.0;"/><line style="stroke:#181818;stroke-width:1.0;" x1="133" x2="582.5" y1="126.4297" y2="126.4297"/><text fill="#000000" font-family="sans-serif" font-size="13" lengthAdjust="spacing" textLength="165" x="140" y="121.3638">contextMenus.onClicked()</text><polygon fill="#181818" points="290,151.5625,280,155.5625,290,159.5625,286,155.5625" style="stroke:#181818;stroke-width:1.0;"/><line style="stroke:#181818;stroke-width:1.0;" x1="284" x2="587.5" y1="155.5625" y2="155.5625"/><text fill="#000000" font-family="sans-serif" font-size="13" lengthAdjust="spacing" textLength="266" x="296" y="150.4966">collectPageDetails [sender: contextMenu]</text><polygon fill="#181818" points="780.5,180.6953,790.5,184.6953,780.5,188.6953,784.5,184.6953" style="stroke:#181818;stroke-width:1.0;"/><line style="stroke:#181818;stroke-width:1.0;" x1="279" x2="786.5" y1="184.6953" y2="184.6953"/><text fill="#000000" font-family="sans-serif" font-size="13" lengthAdjust="spacing" textLength="328" x="286" y="179.6294">collectPageDetailsResponse [sender: contextMenu]</text><!--SRC=[TP2zRW8n48HxFyNgqa1nro4X2YGWLqP2GLGeXJ6RauDZMzuzYSV7lfWV0v4hUsQ-dRLKx09i2OFmCh1MsalBK2rwTj_Q65WvotXY-43RLo09P5Qo8CJUdQ0QRZ6uKK5xfWhUbjDq2kebslpGFKcWFK2aPDHIgcCNN1yVrxB3n6edxRGjMUflVAf5pVuQQNX0PxL8XDwo_iLdSnPkDT9tG5tFdtPzk4Eqv4amAnivkp9Q7V4m6WjrSry0WzqOL9nMV4UMsX3iA5R0KA2-haDJFbTz6Vz4yiuI_eCv0m00]--></g></svg>