<?xml version="1.0" encoding="us-ascii" standalone="no"?><svg xmlns="http://www.w3.org/2000/svg" xmlns:xlink="http://www.w3.org/1999/xlink" contentStyleType="text/css" height="357px" preserveAspectRatio="none" style="width:1249px;height:357px;background:#FFFFFF;" version="1.1" viewBox="0 0 1249 357" width="1249px" zoomAndPan="magnify"><defs/><g><rect fill="none" height="104.5313" style="stroke:#000000;stroke-width:1.5;" width="1113.5" x="130" y="53.2969"/><rect fill="none" height="133.6641" style="stroke:#000000;stroke-width:1.5;" width="1233.5" x="10" y="171.8281"/><line style="stroke:#181818;stroke-width:0.5;stroke-dasharray:5.0,5.0;" x1="75" x2="75" y1="36.2969" y2="322.4922"/><line style="stroke:#181818;stroke-width:0.5;stroke-dasharray:5.0,5.0;" x1="188" x2="188" y1="36.2969" y2="322.4922"/><line style="stroke:#181818;stroke-width:0.5;stroke-dasharray:5.0,5.0;" x1="348" x2="348" y1="36.2969" y2="322.4922"/><line style="stroke:#181818;stroke-width:0.5;stroke-dasharray:5.0,5.0;" x1="519" x2="519" y1="36.2969" y2="322.4922"/><line style="stroke:#181818;stroke-width:0.5;stroke-dasharray:5.0,5.0;" x1="688" x2="688" y1="36.2969" y2="322.4922"/><line style="stroke:#181818;stroke-width:0.5;stroke-dasharray:5.0,5.0;" x1="876.5" x2="876.5" y1="36.2969" y2="322.4922"/><line style="stroke:#181818;stroke-width:0.5;stroke-dasharray:5.0,5.0;" x1="1150.5" x2="1150.5" y1="36.2969" y2="322.4922"/><rect fill="#E2E2F0" height="30.2969" rx="2.5" ry="2.5" style="stroke:#181818;stroke-width:0.5;" width="110" x="20" y="5"/><text fill="#000000" font-family="sans-serif" font-size="14" lengthAdjust="spacing" textLength="96" x="27" y="24.9951">Mobile Device</text><rect fill="#E2E2F0" height="30.2969" rx="2.5" ry="2.5" style="stroke:#181818;stroke-width:0.5;" width="110" x="20" y="321.4922"/><text fill="#000000" font-family="sans-serif" font-size="14" lengthAdjust="spacing" textLength="96" x="27" y="341.4873">Mobile Device</text><rect fill="#E2E2F0" height="30.2969" rx="2.5" ry="2.5" style="stroke:#181818;stroke-width:0.5;" width="96" x="140" y="5"/><text fill="#000000" font-family="sans-serif" font-size="14" lengthAdjust="spacing" textLength="82" x="147" y="24.9951">Other Client</text><rect fill="#E2E2F0" height="30.2969" rx="2.5" ry="2.5" style="stroke:#181818;stroke-width:0.5;" width="96" x="140" y="321.4922"/><text fill="#000000" font-family="sans-serif" font-size="14" lengthAdjust="spacing" textLength="82" x="147" y="341.4873">Other Client</text><rect fill="#E2E2F0" height="30.2969" rx="2.5" ry="2.5" style="stroke:#181818;stroke-width:0.5;" width="204" x="246" y="5"/><text fill="#000000" font-family="sans-serif" font-size="14" lengthAdjust="spacing" textLength="190" x="253" y="24.9951">Platform Notification Service</text><rect fill="#E2E2F0" height="30.2969" rx="2.5" ry="2.5" style="stroke:#181818;stroke-width:0.5;" width="204" x="246" y="321.4922"/><text fill="#000000" font-family="sans-serif" font-size="14" lengthAdjust="spacing" textLength="190" x="253" y="341.4873">Platform Notification Service</text><rect fill="#E2E2F0" height="30.2969" rx="2.5" ry="2.5" style="stroke:#181818;stroke-width:0.5;" width="119" x="460" y="5"/><text fill="#000000" font-family="sans-serif" font-size="14" lengthAdjust="spacing" textLength="105" x="467" y="24.9951">Self-Hosted API</text><rect fill="#E2E2F0" height="30.2969" rx="2.5" ry="2.5" style="stroke:#181818;stroke-width:0.5;" width="119" x="460" y="321.4922"/><text fill="#000000" font-family="sans-serif" font-size="14" lengthAdjust="spacing" textLength="105" x="467" y="341.4873">Self-Hosted API</text><rect fill="#E2E2F0" height="30.2969" rx="2.5" ry="2.5" style="stroke:#181818;stroke-width:0.5;" width="199" x="589" y="5"/><text fill="#000000" font-family="sans-serif" font-size="14" lengthAdjust="spacing" textLength="185" x="596" y="24.9951">Self-Hosted Notification API</text><rect fill="#E2E2F0" height="30.2969" rx="2.5" ry="2.5" style="stroke:#181818;stroke-width:0.5;" width="199" x="589" y="321.4922"/><text fill="#000000" font-family="sans-serif" font-size="14" lengthAdjust="spacing" textLength="185" x="596" y="341.4873">Self-Hosted Notification API</text><rect fill="#E2E2F0" height="30.2969" rx="2.5" ry="2.5" style="stroke:#181818;stroke-width:0.5;" width="152" x="800.5" y="5"/><text fill="#000000" font-family="sans-serif" font-size="14" lengthAdjust="spacing" textLength="138" x="807.5" y="24.9951">Bitwarden Cloud API</text><rect fill="#E2E2F0" height="30.2969" rx="2.5" ry="2.5" style="stroke:#181818;stroke-width:0.5;" width="152" x="800.5" y="321.4922"/><text fill="#000000" font-family="sans-serif" font-size="14" lengthAdjust="spacing" textLength="138" x="807.5" y="341.4873">Bitwarden Cloud API</text><rect fill="#E2E2F0" height="30.2969" rx="2.5" ry="2.5" style="stroke:#181818;stroke-width:0.5;" width="166" x="1067.5" y="5"/><text fill="#000000" font-family="sans-serif" font-size="14" lengthAdjust="spacing" textLength="152" x="1074.5" y="24.9951">Azure Notification Hub</text><rect fill="#E2E2F0" height="30.2969" rx="2.5" ry="2.5" style="stroke:#181818;stroke-width:0.5;" width="166" x="1067.5" y="321.4922"/><text fill="#000000" font-family="sans-serif" font-size="14" lengthAdjust="spacing" textLength="152" x="1074.5" y="341.4873">Azure Notification Hub</text><path d="M130,53.2969 L366,53.2969 L366,60.4297 L356,70.4297 L130,70.4297 L130,53.2969 " fill="#EEEEEE" style="stroke:#000000;stroke-width:1.5;"/><rect fill="none" height="104.5313" style="stroke:#000000;stroke-width:1.5;" width="1113.5" x="130" y="53.2969"/><text fill="#000000" font-family="sans-serif" font-size="13" font-weight="bold" lengthAdjust="spacing" textLength="191" x="145" y="66.3638">Other client updates data</text><line style="stroke:#181818;stroke-width:1.0;" x1="517.5" x2="507.5" y1="91.5625" y2="87.5625"/><line style="stroke:#181818;stroke-width:1.0;" x1="517.5" x2="507.5" y1="91.5625" y2="95.5625"/><line style="stroke:#181818;stroke-width:1.0;" x1="188" x2="518.5" y1="91.5625" y2="91.5625"/><text fill="#000000" font-family="sans-serif" font-size="13" lengthAdjust="spacing" textLength="82" x="195" y="86.4966">Update Data</text><line style="stroke:#181818;stroke-width:1.0;" x1="874.5" x2="864.5" y1="120.6953" y2="116.6953"/><line style="stroke:#181818;stroke-width:1.0;" x1="874.5" x2="864.5" y1="120.6953" y2="124.6953"/><line style="stroke:#181818;stroke-width:1.0;" x1="519.5" x2="875.5" y1="120.6953" y2="120.6953"/><text fill="#000000" font-family="sans-serif" font-size="13" lengthAdjust="spacing" textLength="333" x="526.5" y="115.6294">RelayPushNotification sends message to /push/send</text><line style="stroke:#181818;stroke-width:1.0;" x1="1148.5" x2="1138.5" y1="149.8281" y2="145.8281"/><line style="stroke:#181818;stroke-width:1.0;" x1="1148.5" x2="1138.5" y1="149.8281" y2="153.8281"/><line style="stroke:#181818;stroke-width:1.0;" x1="876.5" x2="1149.5" y1="149.8281" y2="149.8281"/><text fill="#000000" font-family="sans-serif" font-size="13" lengthAdjust="spacing" textLength="250" x="883.5" y="144.7622">Send Message to Hub (same as Cloud)</text><path d="M10,171.8281 L162,171.8281 L162,178.9609 L152,188.9609 L10,188.9609 L10,171.8281 " fill="#EEEEEE" style="stroke:#000000;stroke-width:1.5;"/><rect fill="none" height="133.6641" style="stroke:#000000;stroke-width:1.5;" width="1233.5" x="10" y="171.8281"/><text fill="#000000" font-family="sans-serif" font-size="13" font-weight="bold" lengthAdjust="spacing" textLength="107" x="25" y="184.895">Update clients</text><line style="stroke:#181818;stroke-width:1.0;" x1="349" x2="359" y1="210.0938" y2="206.0938"/><line style="stroke:#181818;stroke-width:1.0;" x1="349" x2="359" y1="210.0938" y2="214.0938"/><line style="stroke:#181818;stroke-width:1.0;" x1="348" x2="1149.5" y1="210.0938" y2="210.0938"/><text fill="#000000" font-family="sans-serif" font-size="13" lengthAdjust="spacing" textLength="158" x="365" y="205.0278">Send Message to Clients</text><line style="stroke:#181818;stroke-width:1.0;" x1="76" x2="86" y1="239.2266" y2="235.2266"/><line style="stroke:#181818;stroke-width:1.0;" x1="76" x2="86" y1="239.2266" y2="243.2266"/><line style="stroke:#181818;stroke-width:1.0;" x1="75" x2="347" y1="239.2266" y2="239.2266"/><text fill="#000000" font-family="sans-serif" font-size="13" lengthAdjust="spacing" textLength="123" x="92" y="234.1606">OnMessageAsync()</text><line style="stroke:#181818;stroke-width:1.0;" x1="517.5" x2="507.5" y1="268.3594" y2="264.3594"/><line style="stroke:#181818;stroke-width:1.0;" x1="517.5" x2="507.5" y1="268.3594" y2="272.3594"/><line style="stroke:#181818;stroke-width:1.0;" x1="75" x2="518.5" y1="268.3594" y2="268.3594"/><text fill="#000000" font-family="sans-serif" font-size="13" lengthAdjust="spacing" textLength="85" x="82" y="263.2935">Request data</text><line style="stroke:#181818;stroke-width:1.0;" x1="76" x2="86" y1="297.4922" y2="293.4922"/><line style="stroke:#181818;stroke-width:1.0;" x1="76" x2="86" y1="297.4922" y2="301.4922"/><line style="stroke:#181818;stroke-width:1.0;" x1="75" x2="518.5" y1="297.4922" y2="297.4922"/><text fill="#000000" font-family="sans-serif" font-size="13" lengthAdjust="spacing" textLength="226" x="92" y="292.4263">Return data requested by message</text><!--SRC=[TP91Ry8m38Nl_0gB4npGxZqWGP7MIQDKL1F7ARG68fMaIvnDxDVFTIcZAyiXgkBFptalXLevqeMkbI5On- -lEIWFuxNTwmfXXP-wmF48UDs3krYe3PtGGLnfD3I4ihJLoYf51-lEa5hI1rqeqjP0ZkwnzY9xaROSgyCiiPwmRCw6O9wa0x0tuc7NSjSDM6hwKgv4mmvi-6T8cWYx-0uE- -f9s8z7mZyx6sfemoWa30XrgGWzyAw4QTOkditdF2M2Dod3whxA1IxBzIBOOgKkMV2dtaYFflHmHk_L4O4iFDMCF3N7DnaHOA4qYJXZKyBw5-ShmyIhCpQUnFHK-ff- -JYAa-ljMYl-ffmcBCkFEjID_v0CCIf_KmGRSoKN_cAAoVH6IRrBP8iV0Jtr0skTN7MsIC4P0S2rD3_u_jBbqJdv0G00]--></g></svg>