<?xml version="1.0" encoding="us-ascii" standalone="no"?><svg xmlns="http://www.w3.org/2000/svg" xmlns:xlink="http://www.w3.org/1999/xlink" contentStyleType="text/css" height="301px" preserveAspectRatio="none" style="width:798px;height:301px;background:#FFFFFF;" version="1.1" viewBox="0 0 798 301" width="798px" zoomAndPan="magnify"><defs/><g><rect fill="none" height="46.2656" style="stroke:#000000;stroke-width:1.5;" width="658" x="134" y="53.2969"/><rect fill="none" height="75.3984" style="stroke:#000000;stroke-width:1.5;" width="782" x="10" y="113.5625"/><rect fill="none" height="46.2656" style="stroke:#000000;stroke-width:1.5;" width="658" x="134" y="202.9609"/><line style="stroke:#181818;stroke-width:0.5;stroke-dasharray:5.0,5.0;" x1="77" x2="77" y1="36.2969" y2="266.2266"/><line style="stroke:#181818;stroke-width:0.5;stroke-dasharray:5.0,5.0;" x1="206" x2="206" y1="36.2969" y2="266.2266"/><line style="stroke:#181818;stroke-width:0.5;stroke-dasharray:5.0,5.0;" x1="337" x2="337" y1="36.2969" y2="266.2266"/><line style="stroke:#181818;stroke-width:0.5;stroke-dasharray:5.0,5.0;" x1="678" x2="678" y1="36.2969" y2="266.2266"/><rect fill="#E2E2F0" height="30.2969" rx="2.5" ry="2.5" style="stroke:#181818;stroke-width:0.5;" width="114" x="20" y="5"/><text fill="#000000" font-family="sans-serif" font-size="14" lengthAdjust="spacing" textLength="100" x="27" y="24.9951">Initiating Client</text><rect fill="#E2E2F0" height="30.2969" rx="2.5" ry="2.5" style="stroke:#181818;stroke-width:0.5;" width="114" x="20" y="265.2266"/><text fill="#000000" font-family="sans-serif" font-size="14" lengthAdjust="spacing" textLength="100" x="27" y="285.2217">Initiating Client</text><rect fill="#E2E2F0" height="30.2969" rx="2.5" ry="2.5" style="stroke:#181818;stroke-width:0.5;" width="124" x="144" y="5"/><text fill="#000000" font-family="sans-serif" font-size="14" lengthAdjust="spacing" textLength="110" x="151" y="24.9951">Receiving Client</text><rect fill="#E2E2F0" height="30.2969" rx="2.5" ry="2.5" style="stroke:#181818;stroke-width:0.5;" width="124" x="144" y="265.2266"/><text fill="#000000" font-family="sans-serif" font-size="14" lengthAdjust="spacing" textLength="110" x="151" y="285.2217">Receiving Client</text><rect fill="#E2E2F0" height="30.2969" rx="2.5" ry="2.5" style="stroke:#181818;stroke-width:0.5;" width="119" x="278" y="5"/><text fill="#000000" font-family="sans-serif" font-size="14" lengthAdjust="spacing" textLength="105" x="285" y="24.9951">Self-Hosted API</text><rect fill="#E2E2F0" height="30.2969" rx="2.5" ry="2.5" style="stroke:#181818;stroke-width:0.5;" width="119" x="278" y="265.2266"/><text fill="#000000" font-family="sans-serif" font-size="14" lengthAdjust="spacing" textLength="105" x="285" y="285.2217">Self-Hosted API</text><rect fill="#E2E2F0" height="30.2969" rx="2.5" ry="2.5" style="stroke:#181818;stroke-width:0.5;" width="207" x="575" y="5"/><text fill="#000000" font-family="sans-serif" font-size="14" lengthAdjust="spacing" textLength="193" x="582" y="24.9951">Self-Hosted Notifications API</text><rect fill="#E2E2F0" height="30.2969" rx="2.5" ry="2.5" style="stroke:#181818;stroke-width:0.5;" width="207" x="575" y="265.2266"/><text fill="#000000" font-family="sans-serif" font-size="14" lengthAdjust="spacing" textLength="193" x="582" y="285.2217">Self-Hosted Notifications API</text><path d="M134,53.2969 L241,53.2969 L241,60.4297 L231,70.4297 L134,70.4297 L134,53.2969 " fill="#EEEEEE" style="stroke:#000000;stroke-width:1.5;"/><rect fill="none" height="46.2656" style="stroke:#000000;stroke-width:1.5;" width="658" x="134" y="53.2969"/><text fill="#000000" font-family="sans-serif" font-size="13" font-weight="bold" lengthAdjust="spacing" textLength="62" x="149" y="66.3638">Register</text><line style="stroke:#181818;stroke-width:1.0;" x1="676.5" x2="666.5" y1="91.5625" y2="87.5625"/><line style="stroke:#181818;stroke-width:1.0;" x1="676.5" x2="666.5" y1="91.5625" y2="95.5625"/><line style="stroke:#181818;stroke-width:1.0;" x1="206" x2="677.5" y1="91.5625" y2="91.5625"/><text fill="#000000" font-family="sans-serif" font-size="13" lengthAdjust="spacing" textLength="167" x="213" y="86.4966">Registers as SignalR client</text><path d="M10,113.5625 L246,113.5625 L246,120.6953 L236,130.6953 L10,130.6953 L10,113.5625 " fill="#EEEEEE" style="stroke:#000000;stroke-width:1.5;"/><rect fill="none" height="75.3984" style="stroke:#000000;stroke-width:1.5;" width="782" x="10" y="113.5625"/><text fill="#000000" font-family="sans-serif" font-size="13" font-weight="bold" lengthAdjust="spacing" textLength="191" x="25" y="126.6294">Other client updates data</text><line style="stroke:#181818;stroke-width:1.0;" x1="335.5" x2="325.5" y1="151.8281" y2="147.8281"/><line style="stroke:#181818;stroke-width:1.0;" x1="335.5" x2="325.5" y1="151.8281" y2="155.8281"/><line style="stroke:#181818;stroke-width:1.0;" x1="77" x2="336.5" y1="151.8281" y2="151.8281"/><text fill="#000000" font-family="sans-serif" font-size="13" lengthAdjust="spacing" textLength="87" x="84" y="146.7622">Updates data</text><line style="stroke:#181818;stroke-width:1.0;" x1="676.5" x2="666.5" y1="180.9609" y2="176.9609"/><line style="stroke:#181818;stroke-width:1.0;" x1="676.5" x2="666.5" y1="180.9609" y2="184.9609"/><line style="stroke:#181818;stroke-width:1.0;" x1="337.5" x2="677.5" y1="180.9609" y2="180.9609"/><text fill="#000000" font-family="sans-serif" font-size="13" lengthAdjust="spacing" textLength="317" x="344.5" y="175.895">Calls Notifications API to distribute the notification</text><path d="M134,202.9609 L286,202.9609 L286,210.0938 L276,220.0938 L134,220.0938 L134,202.9609 " fill="#EEEEEE" style="stroke:#000000;stroke-width:1.5;"/><rect fill="none" height="46.2656" style="stroke:#000000;stroke-width:1.5;" width="658" x="134" y="202.9609"/><text fill="#000000" font-family="sans-serif" font-size="13" font-weight="bold" lengthAdjust="spacing" textLength="107" x="149" y="216.0278">Update clients</text><line style="stroke:#181818;stroke-width:1.0;" x1="207" x2="217" y1="241.2266" y2="237.2266"/><line style="stroke:#181818;stroke-width:1.0;" x1="207" x2="217" y1="241.2266" y2="245.2266"/><line style="stroke:#181818;stroke-width:1.0;" x1="206" x2="677.5" y1="241.2266" y2="241.2266"/><text fill="#000000" font-family="sans-serif" font-size="13" lengthAdjust="spacing" textLength="232" x="223" y="236.1606">Sends Message to registered clients</text><!--SRC=[TP2nRiCm34HtVGMHFKCyPWXGQ6Wo92riz0DKcr48298Wqlt-Cf9R64cxQ3YzEnwPNH4QARieO7VW63QdI49EA7gmWJ3AnkGrrLMgnn7fwpzeEBwydoetOBXkZua59r3j4RlynLsIq9L6xP0YDvVn9SqPUlIaI36ssnuEpRx_LVcUD92FBlGmrbe6usJCQpM_oGtBeiES9oV8eAypTbVJQjZ7-gDggqdMXS3F_K0IJ5gXqESi23e7ueff9Te6BNvfmQO5wmJRxM5GZk6CpCxZFRCiY-bDVWoAV0C0]--></g></svg>