<?xml version="1.0" encoding="us-ascii" standalone="no"?><svg xmlns="http://www.w3.org/2000/svg" xmlns:xlink="http://www.w3.org/1999/xlink" contentStyleType="text/css" height="268px" preserveAspectRatio="none" style="width:1266px;height:268px;background:#FFFFFF;" version="1.1" viewBox="0 0 1266 268" width="1266px" zoomAndPan="magnify"><defs/><g><rect fill="none" height="162.7969" style="stroke:#000000;stroke-width:1.5;" width="1250.5" x="10" y="53.2969"/><line style="stroke:#181818;stroke-width:0.5;stroke-dasharray:5.0,5.0;" x1="75" x2="75" y1="36.2969" y2="233.0938"/><line style="stroke:#181818;stroke-width:0.5;stroke-dasharray:5.0,5.0;" x1="242" x2="242" y1="36.2969" y2="233.0938"/><line style="stroke:#181818;stroke-width:0.5;stroke-dasharray:5.0,5.0;" x1="413" x2="413" y1="36.2969" y2="233.0938"/><line style="stroke:#181818;stroke-width:0.5;stroke-dasharray:5.0,5.0;" x1="792.5" x2="792.5" y1="36.2969" y2="233.0938"/><line style="stroke:#181818;stroke-width:0.5;stroke-dasharray:5.0,5.0;" x1="1167.5" x2="1167.5" y1="36.2969" y2="233.0938"/><rect fill="#E2E2F0" height="30.2969" rx="2.5" ry="2.5" style="stroke:#181818;stroke-width:0.5;" width="110" x="20" y="5"/><text fill="#000000" font-family="sans-serif" font-size="14" lengthAdjust="spacing" textLength="96" x="27" y="24.9951">Mobile Device</text><rect fill="#E2E2F0" height="30.2969" rx="2.5" ry="2.5" style="stroke:#181818;stroke-width:0.5;" width="110" x="20" y="232.0938"/><text fill="#000000" font-family="sans-serif" font-size="14" lengthAdjust="spacing" textLength="96" x="27" y="252.0889">Mobile Device</text><rect fill="#E2E2F0" height="30.2969" rx="2.5" ry="2.5" style="stroke:#181818;stroke-width:0.5;" width="204" x="140" y="5"/><text fill="#000000" font-family="sans-serif" font-size="14" lengthAdjust="spacing" textLength="190" x="147" y="24.9951">Platform Notification Service</text><rect fill="#E2E2F0" height="30.2969" rx="2.5" ry="2.5" style="stroke:#181818;stroke-width:0.5;" width="204" x="140" y="232.0938"/><text fill="#000000" font-family="sans-serif" font-size="14" lengthAdjust="spacing" textLength="190" x="147" y="252.0889">Platform Notification Service</text><rect fill="#E2E2F0" height="30.2969" rx="2.5" ry="2.5" style="stroke:#181818;stroke-width:0.5;" width="119" x="354" y="5"/><text fill="#000000" font-family="sans-serif" font-size="14" lengthAdjust="spacing" textLength="105" x="361" y="24.9951">Self-Hosted API</text><rect fill="#E2E2F0" height="30.2969" rx="2.5" ry="2.5" style="stroke:#181818;stroke-width:0.5;" width="119" x="354" y="232.0938"/><text fill="#000000" font-family="sans-serif" font-size="14" lengthAdjust="spacing" textLength="105" x="361" y="252.0889">Self-Hosted API</text><rect fill="#E2E2F0" height="30.2969" rx="2.5" ry="2.5" style="stroke:#181818;stroke-width:0.5;" width="152" x="716.5" y="5"/><text fill="#000000" font-family="sans-serif" font-size="14" lengthAdjust="spacing" textLength="138" x="723.5" y="24.9951">Bitwarden Cloud API</text><rect fill="#E2E2F0" height="30.2969" rx="2.5" ry="2.5" style="stroke:#181818;stroke-width:0.5;" width="152" x="716.5" y="232.0938"/><text fill="#000000" font-family="sans-serif" font-size="14" lengthAdjust="spacing" textLength="138" x="723.5" y="252.0889">Bitwarden Cloud API</text><rect fill="#E2E2F0" height="30.2969" rx="2.5" ry="2.5" style="stroke:#181818;stroke-width:0.5;" width="166" x="1084.5" y="5"/><text fill="#000000" font-family="sans-serif" font-size="14" lengthAdjust="spacing" textLength="152" x="1091.5" y="24.9951">Azure Notification Hub</text><rect fill="#E2E2F0" height="30.2969" rx="2.5" ry="2.5" style="stroke:#181818;stroke-width:0.5;" width="166" x="1084.5" y="232.0938"/><text fill="#000000" font-family="sans-serif" font-size="14" lengthAdjust="spacing" textLength="152" x="1091.5" y="252.0889">Azure Notification Hub</text><path d="M10,53.2969 L117,53.2969 L117,60.4297 L107,70.4297 L10,70.4297 L10,53.2969 " fill="#EEEEEE" style="stroke:#000000;stroke-width:1.5;"/><rect fill="none" height="162.7969" style="stroke:#000000;stroke-width:1.5;" width="1250.5" x="10" y="53.2969"/><text fill="#000000" font-family="sans-serif" font-size="13" font-weight="bold" lengthAdjust="spacing" textLength="62" x="25" y="66.3638">Register</text><line style="stroke:#181818;stroke-width:1.0;" x1="240" x2="230" y1="91.5625" y2="87.5625"/><line style="stroke:#181818;stroke-width:1.0;" x1="240" x2="230" y1="91.5625" y2="95.5625"/><line style="stroke:#181818;stroke-width:1.0;" x1="75" x2="241" y1="91.5625" y2="91.5625"/><text fill="#000000" font-family="sans-serif" font-size="13" lengthAdjust="spacing" textLength="52" x="82" y="86.4966">Register</text><line style="stroke:#181818;stroke-width:1.0;" x1="76" x2="86" y1="120.6953" y2="116.6953"/><line style="stroke:#181818;stroke-width:1.0;" x1="76" x2="86" y1="120.6953" y2="124.6953"/><line style="stroke:#181818;stroke-width:1.0;" x1="75" x2="241" y1="120.6953" y2="120.6953"/><text fill="#000000" font-family="sans-serif" font-size="13" lengthAdjust="spacing" textLength="73" x="92" y="115.6294">Push Token</text><line style="stroke:#181818;stroke-width:1.0;" x1="411.5" x2="401.5" y1="149.8281" y2="145.8281"/><line style="stroke:#181818;stroke-width:1.0;" x1="411.5" x2="401.5" y1="149.8281" y2="153.8281"/><line style="stroke:#181818;stroke-width:1.0;" x1="75" x2="412.5" y1="149.8281" y2="149.8281"/><text fill="#000000" font-family="sans-serif" font-size="13" lengthAdjust="spacing" textLength="250" x="82" y="144.7622">Store Push Token with Device and User</text><line style="stroke:#181818;stroke-width:1.0;" x1="790.5" x2="780.5" y1="178.9609" y2="174.9609"/><line style="stroke:#181818;stroke-width:1.0;" x1="790.5" x2="780.5" y1="178.9609" y2="182.9609"/><line style="stroke:#181818;stroke-width:1.0;" x1="413.5" x2="791.5" y1="178.9609" y2="178.9609"/><text fill="#000000" font-family="sans-serif" font-size="13" lengthAdjust="spacing" textLength="355" x="420.5" y="173.895">RelayPushRegistration sends message to /push/register</text><line style="stroke:#181818;stroke-width:1.0;" x1="1165.5" x2="1155.5" y1="208.0938" y2="204.0938"/><line style="stroke:#181818;stroke-width:1.0;" x1="1165.5" x2="1155.5" y1="208.0938" y2="212.0938"/><line style="stroke:#181818;stroke-width:1.0;" x1="792.5" x2="1166.5" y1="208.0938" y2="208.0938"/><text fill="#000000" font-family="sans-serif" font-size="13" lengthAdjust="spacing" textLength="351" x="799.5" y="203.0278">Associate Token with Device and User (same as Cloud)</text><!--SRC=[VP0nJyD038Nt_Weh4mnLzmoLqZ84gOsY1iI8hecJMYJdwCvf1RyUvmAY4C2Z_RtdPqDld519lR42- -tphW3Z8ThpaLg4EpnJYT42jAx1F9kml3LIi-iWOw6QIYF45WfqlykI_3x82cphPSfUi1fxSt3pz8bkI2x6LMXXs_Bm1vwbWKtU1eVVewJ3CLe4ld4yz730XdIj2wsnmidBzLelYkTJxUeiC37aWp_10x-WdQarLGo5iAx_ek12Slfu8HXRmQE_ibQ92iEXu-BMl8xAAO6RmdkqbOSElJSDWZ2iUaLMxcVAOA9cMHf3uZsNP0J_oG0ttdGulYpyz3OOwQvt]--></g></svg>