<?xml version="1.0" encoding="us-ascii" standalone="no"?><svg xmlns="http://www.w3.org/2000/svg" xmlns:xlink="http://www.w3.org/1999/xlink" contentStyleType="text/css" height="506px" preserveAspectRatio="none" style="width:801px;height:506px;" version="1.1" viewBox="0 0 801 506" width="801px" zoomAndPan="magnify"><defs/><g><text fill="#000000" font-family="sans-serif" font-size="14" font-weight="bold" lengthAdjust="spacing" textLength="263" x="262.25" y="22.9951">Simplified Dependencies Diagram</text><!--cluster watchOS--><g id="cluster_watchOS"><rect fill="none" height="279.89" rx="2.5" ry="2.5" style="stroke:#181818;stroke-width:1.0;" width="256" x="539.5" y="44.2969"/><text fill="#000000" font-family="sans-serif" font-size="14" font-weight="bold" lengthAdjust="spacing" textLength="70" x="632.5" y="59.292">watchOS</text></g><!--entity bitwarden--><g id="elem_bitwarden"><rect fill="#F1F1F1" height="36.2969" rx="2.5" ry="2.5" style="stroke:#181818;stroke-width:0.5;" width="88" x="614.5" y="79.2969"/><text fill="#000000" font-family="sans-serif" font-size="14" lengthAdjust="spacing" textLength="68" x="624.5" y="102.292">bitwarden</text></g><!--entity bitwarden WatchKit App--><g id="elem_bitwarden WatchKit App"><rect fill="#F1F1F1" height="36.2969" rx="2.5" ry="2.5" style="stroke:#181818;stroke-width:0.5;" width="183" x="567" y="175.5869"/><text fill="#000000" font-family="sans-serif" font-size="14" lengthAdjust="spacing" textLength="163" x="577" y="198.582">bitwarden WatchKit App</text></g><!--entity bitwarden WatchKit Extension--><g id="elem_bitwarden WatchKit Extension"><rect fill="#F1F1F1" height="36.2969" rx="2.5" ry="2.5" style="stroke:#181818;stroke-width:0.5;" width="224" x="555.5" y="271.8869"/><text fill="#000000" font-family="sans-serif" font-size="14" lengthAdjust="spacing" textLength="204" x="565.5" y="294.882">bitwarden WatchKit Extension</text></g><!--entity Core--><g id="elem_Core"><rect fill="#F1F1F1" height="36.2969" rx="2.5" ry="2.5" style="stroke:#181818;stroke-width:0.5;" width="53" x="178" y="464.4769"/><text fill="#000000" font-family="sans-serif" font-size="14" lengthAdjust="spacing" textLength="33" x="188" y="487.472">Core</text></g><!--entity App--><g id="elem_App"><rect fill="#F1F1F1" height="36.2969" rx="2.5" ry="2.5" style="stroke:#181818;stroke-width:0.5;" width="47" x="181" y="368.1869"/><text fill="#000000" font-family="sans-serif" font-size="14" lengthAdjust="spacing" textLength="27" x="191" y="391.182">App</text></g><!--entity Android--><g id="elem_Android"><rect fill="#F1F1F1" height="36.2969" rx="2.5" ry="2.5" style="stroke:#181818;stroke-width:0.5;" width="73" x="7" y="271.8869"/><text fill="#000000" font-family="sans-serif" font-size="14" lengthAdjust="spacing" textLength="53" x="17" y="294.882">Android</text></g><!--entity iOS.Core--><g id="elem_iOS.Core"><rect fill="#F1F1F1" height="36.2969" rx="2.5" ry="2.5" style="stroke:#181818;stroke-width:0.5;" width="80" x="257.5" y="271.8869"/><text fill="#000000" font-family="sans-serif" font-size="14" lengthAdjust="spacing" textLength="60" x="267.5" y="294.882">iOS.Core</text></g><!--entity iOS--><g id="elem_iOS"><rect fill="#F1F1F1" height="36.2969" rx="2.5" ry="2.5" style="stroke:#181818;stroke-width:0.5;" width="43" x="293" y="79.2969"/><text fill="#000000" font-family="sans-serif" font-size="14" lengthAdjust="spacing" textLength="23" x="303" y="102.292">iOS</text></g><!--entity iOS.Autofill--><g id="elem_iOS.Autofill"><rect fill="#F1F1F1" height="36.2969" rx="2.5" ry="2.5" style="stroke:#181818;stroke-width:0.5;" width="92" x="19.5" y="175.5869"/><text fill="#000000" font-family="sans-serif" font-size="14" lengthAdjust="spacing" textLength="72" x="29.5" y="198.582">iOS.Autofill</text></g><!--entity iOS.Extension--><g id="elem_iOS.Extension"><rect fill="#F1F1F1" height="36.2969" rx="2.5" ry="2.5" style="stroke:#181818;stroke-width:0.5;" width="115" x="147" y="175.5869"/><text fill="#000000" font-family="sans-serif" font-size="14" lengthAdjust="spacing" textLength="95" x="157" y="198.582">iOS.Extension</text></g><!--entity iOS.ShareExtension--><g id="elem_iOS.ShareExtension"><rect fill="#F1F1F1" height="36.2969" rx="2.5" ry="2.5" style="stroke:#181818;stroke-width:0.5;" width="155" x="368" y="175.5869"/><text fill="#000000" font-family="sans-serif" font-size="14" lengthAdjust="spacing" textLength="135" x="378" y="198.582">iOS.ShareExtension</text></g><!--link App to Core--><g id="link_App_Core"><path d="M204.5,404.8969 C204.5,421.9469 204.5,441.0869 204.5,458.1169 " fill="none" id="App-to-Core" style="stroke:#181818;stroke-width:1.0;"/><polygon fill="#181818" points="204.5,464.1169,208.5,455.1169,204.5,459.1169,200.5,455.1169,204.5,464.1169" style="stroke:#181818;stroke-width:1.0;"/></g><!--link Android to App--><g id="link_Android_App"><path d="M80.39,286.7769 C124.59,286.7769 192.75,286.7769 192.75,286.7769 C192.75,286.7769 192.75,333.3269 192.75,362.0669 " fill="none" id="Android-to-App" style="stroke:#181818;stroke-width:1.0;"/><polygon fill="#181818" points="192.75,368.0669,196.75,359.0669,192.75,363.0669,188.75,359.0669,192.75,368.0669" style="stroke:#181818;stroke-width:1.0;"/></g><!--link iOS.Core to App--><g id="link_iOS.Core_App"><path d="M257.35,301.7769 C236.88,301.7769 216.25,301.7769 216.25,301.7769 C216.25,301.7769 216.25,337.1169 216.25,361.9869 " fill="none" id="iOS.Core-to-App" style="stroke:#181818;stroke-width:1.0;"/><polygon fill="#181818" points="216.25,367.9869,220.25,358.9869,216.25,362.9869,212.25,358.9869,216.25,367.9869" style="stroke:#181818;stroke-width:1.0;"/></g><!--link iOS to iOS.Core--><g id="link_iOS_iOS.Core"><path d="M310.2,115.9069 C310.2,152.7169 310.2,228.8569 310.2,265.6269 " fill="none" id="iOS-to-iOS.Core" style="stroke:#181818;stroke-width:1.0;"/><polygon fill="#181818" points="310.2,271.6269,314.2,262.6269,310.2,266.6269,306.2,262.6269,310.2,271.6269" style="stroke:#181818;stroke-width:1.0;"/></g><!--link iOS to iOS.Autofill--><g id="link_iOS_iOS.Autofill"><path d="M292.84,97.7769 C232.26,97.7769 65.5,97.7769 65.5,97.7769 C65.5,97.7769 65.5,141.3469 65.5,169.2369 " fill="none" id="iOS-to-iOS.Autofill" style="stroke:#181818;stroke-width:1.0;"/><polygon fill="#181818" points="65.5,175.2369,69.5,166.2369,65.5,170.2369,61.5,166.2369,65.5,175.2369" style="stroke:#181818;stroke-width:1.0;"/></g><!--link iOS to iOS.Extension--><g id="link_iOS_iOS.Extension"><path d="M301.6,116.0169 C301.6,144.0069 301.6,193.7769 301.6,193.7769 C301.6,193.7769 289.18,193.7769 268.39,193.7769 " fill="none" id="iOS-to-iOS.Extension" style="stroke:#181818;stroke-width:1.0;"/><polygon fill="#181818" points="262.39,193.7769,271.39,197.7769,267.39,193.7769,271.39,189.7769,262.39,193.7769" style="stroke:#181818;stroke-width:1.0;"/></g><!--link iOS to iOS.ShareExtension--><g id="link_iOS_iOS.ShareExtension"><path d="M327.4,115.9669 C327.4,141.5969 327.4,184.7769 327.4,184.7769 C327.4,184.7769 339.6,184.7769 361.71,184.7769 " fill="none" id="iOS-to-iOS.ShareExtension" style="stroke:#181818;stroke-width:1.0;"/><polygon fill="#181818" points="367.71,184.7769,358.71,180.7769,362.71,184.7769,358.71,188.7769,367.71,184.7769" style="stroke:#181818;stroke-width:1.0;"/></g><!--link iOS to bitwarden WatchKit App--><g id="link_iOS_bitwarden WatchKit App"><path d="M336.18,97.7769 C401.3,97.7769 590.75,97.7769 590.75,97.7769 C590.75,97.7769 590.75,141.3469 590.75,169.2369 " fill="none" id="iOS-to-bitwarden WatchKit App" style="stroke:#181818;stroke-width:1.0;"/><polygon fill="#181818" points="590.75,175.2369,594.75,166.2369,590.75,170.2369,586.75,166.2369,590.75,175.2369" style="stroke:#181818;stroke-width:1.0;"/></g><!--link iOS.Autofill to App--><g id="link_iOS.Autofill_App"><path d="M90.5,212.2469 C90.5,260.5669 90.5,386.7769 90.5,386.7769 C90.5,386.7769 141.17,386.7769 174.6,386.7769 " fill="none" id="iOS.Autofill-to-App" style="stroke:#181818;stroke-width:1.0;"/><polygon fill="#181818" points="180.6,386.7769,171.6,382.7769,175.6,386.7769,171.6,390.7769,180.6,386.7769" style="stroke:#181818;stroke-width:1.0;"/></g><!--link iOS.Autofill to iOS.Core--><g id="link_iOS.Autofill_iOS.Core"><path d="M101,211.9869 C101,237.2369 101,279.7769 101,279.7769 C101,279.7769 193.77,279.7769 251.26,279.7769 " fill="none" id="iOS.Autofill-to-iOS.Core" style="stroke:#181818;stroke-width:1.0;"/><polygon fill="#181818" points="257.26,279.7769,248.26,275.7769,252.26,279.7769,248.26,283.7769,257.26,279.7769" style="stroke:#181818;stroke-width:1.0;"/></g><!--link iOS.Extension to App--><g id="link_iOS.Extension_App"><path d="M204.5,212.2069 C204.5,249.0169 204.5,325.1569 204.5,361.9169 " fill="none" id="iOS.Extension-to-App" style="stroke:#181818;stroke-width:1.0;"/><polygon fill="#181818" points="204.5,367.9169,208.5,358.9169,204.5,362.9169,200.5,358.9169,204.5,367.9169" style="stroke:#181818;stroke-width:1.0;"/></g><!--link iOS.Extension to iOS.Core--><g id="link_iOS.Extension_iOS.Core"><path d="M244.25,212.0869 C244.25,240.9669 244.25,293.7769 244.25,293.7769 C244.25,293.7769 243.71,293.7769 251.14,293.7769 " fill="none" id="iOS.Extension-to-iOS.Core" style="stroke:#181818;stroke-width:1.0;"/><polygon fill="#181818" points="257.14,293.7769,248.14,289.7769,252.14,293.7769,248.14,297.7769,257.14,293.7769" style="stroke:#181818;stroke-width:1.0;"/></g><!--link iOS.ShareExtension to App--><g id="link_iOS.ShareExtension_App"><path d="M445.5,212.2469 C445.5,260.5669 445.5,386.7769 445.5,386.7769 C445.5,386.7769 295.45,386.7769 234.49,386.7769 " fill="none" id="iOS.ShareExtension-to-App" style="stroke:#181818;stroke-width:1.0;"/><polygon fill="#181818" points="228.49,386.7769,237.49,390.7769,233.49,386.7769,237.49,382.7769,228.49,386.7769" style="stroke:#181818;stroke-width:1.0;"/></g><!--link iOS.ShareExtension to iOS.Core--><g id="link_iOS.ShareExtension_iOS.Core"><path d="M367.79,203.7769 C341.56,203.7769 318.8,203.7769 318.8,203.7769 C318.8,203.7769 318.8,240.4169 318.8,265.7369 " fill="none" id="iOS.ShareExtension-to-iOS.Core" style="stroke:#181818;stroke-width:1.0;"/><polygon fill="#181818" points="318.8,271.7369,322.8,262.7369,318.8,266.7369,314.8,262.7369,318.8,271.7369" style="stroke:#181818;stroke-width:1.0;"/></g><!--link bitwarden to bitwarden WatchKit App--><g id="link_bitwarden_bitwarden WatchKit App"><path d="M658.5,116.0069 C658.5,133.0569 658.5,152.1969 658.5,169.2269 " fill="none" id="bitwarden-to-bitwarden WatchKit App" style="stroke:#181818;stroke-width:1.0;"/><polygon fill="#181818" points="658.5,175.2269,662.5,166.2269,658.5,170.2269,654.5,166.2269,658.5,175.2269" style="stroke:#181818;stroke-width:1.0;"/></g><!--link bitwarden WatchKit App to bitwarden WatchKit Extension--><g id="link_bitwarden WatchKit App_bitwarden WatchKit Extension"><path d="M658.5,212.3069 C658.5,229.3569 658.5,248.4869 658.5,265.5269 " fill="none" id="bitwarden WatchKit App-to-bitwarden WatchKit Extension" style="stroke:#181818;stroke-width:1.0;"/><polygon fill="#181818" points="658.5,271.5269,662.5,262.5269,658.5,266.5269,654.5,262.5269,658.5,271.5269" style="stroke:#181818;stroke-width:1.0;"/></g><!--SRC=[XP2zRiCm38HtFGMHFNs40ldfrA63Xmv11jLcR28o9SWCqg3ekrTkOrUMR6JqVJpvxhepiTDUjx3LvRdsziBLpXhhGRpcBY1aKTruLThMMGvQ8JU3uB4KpRN1wCGGezmSWlNIMAM495mMr3f39y8AzkYGA-IIi8CzwJgub1fVXjNEUbp5miQvwJTNtb8rqUYjUCgCGSoEDXUn9p8c0o-VWjoHvOmKJTXX7b-rb4tu2tmf08Z01ybL-r1pjGJWlVU-ai1lluTNKO1lfGx1T8Jr-XaEVUrZh_pDSbTx7iHXbqoz2oDFnM6d38mvCZBTQOBdMmy1ntz58UV0VrYLH4cDAKcTITJKFelZDyO-3_ejWKLNDDyF]--></g></svg>