<?xml version="1.0" encoding="UTF-8" standalone="no"?><svg xmlns="http://www.w3.org/2000/svg" xmlns:xlink="http://www.w3.org/1999/xlink" contentStyleType="text/css" height="455px" preserveAspectRatio="none" style="width:532px;height:455px;" version="1.1" viewBox="0 0 532 455" width="532px" zoomAndPan="magnify"><defs/><g><rect fill="none" height="26.2969" id="_title" style="stroke:none;stroke-width:1.0;" width="226" x="146" y="5"/><text fill="#000000" font-family="sans-serif" font-size="14" font-weight="bold" lengthAdjust="spacing" textLength="216" x="151" y="22.9951">Simplified Package Diagram</text><!--MD5=[bc209be7e7b821c2b18f2d12f7cf287d]
cluster Bitwarden License--><g id="cluster_Bitwarden License"><rect fill="none" height="87" rx="2.5" ry="2.5" style="stroke:#181818;stroke-width:1.0;" width="162" x="364" y="44.2969"/><text fill="#000000" font-family="sans-serif" font-size="14" font-weight="bold" lengthAdjust="spacing" textLength="146" x="372" y="59.292">Bitwarden License</text></g><!--MD5=[e74390de74fee049ce7079a78a586dcf]
cluster apps--><g id="cluster_apps"><rect fill="none" height="87" rx="2.5" ry="2.5" style="stroke:#181818;stroke-width:1.0;" width="494" x="7" y="155.2969"/><text fill="#000000" font-family="sans-serif" font-size="14" font-weight="bold" lengthAdjust="spacing" textLength="38" x="235" y="170.292">apps</text></g><!--MD5=[387c89d0a59960ec7e6c0f2ec8a16958]
cluster libs--><g id="cluster_libs"><rect fill="none" height="183" rx="2.5" ry="2.5" style="stroke:#181818;stroke-width:1.0;" width="197" x="102" y="266.2969"/><text fill="#000000" font-family="sans-serif" font-size="14" font-weight="bold" lengthAdjust="spacing" textLength="27" x="187" y="281.292">libs</text></g><!--MD5=[32599a70bdc6d0946c2369b0ab1c898b]
entity Bit Web--><g id="elem_Bit Web"><rect fill="#F1F1F1" height="36.2969" rx="2.5" ry="2.5" style="stroke:#181818;stroke-width:0.5;" width="73" x="404.5" y="79.2969"/><text fill="#000000" font-family="sans-serif" font-size="14" lengthAdjust="spacing" textLength="53" x="414.5" y="102.292">Bit Web</text></g><!--MD5=[6fdd3801f4864a9ae5ed0f398661effe]
entity Web Vault--><g id="elem_Web Vault"><rect fill="#F1F1F1" height="36.2969" rx="2.5" ry="2.5" style="stroke:#181818;stroke-width:0.5;" width="89" x="396.5" y="190.2969"/><text fill="#000000" font-family="sans-serif" font-size="14" lengthAdjust="spacing" textLength="69" x="406.5" y="213.292">Web Vault</text></g><!--MD5=[bd0d3c2d865c9ff19a649fcf77cfea2b]
entity Desktop--><g id="elem_Desktop"><rect fill="#F1F1F1" height="36.2969" rx="2.5" ry="2.5" style="stroke:#181818;stroke-width:0.5;" width="79" x="282.5" y="190.2969"/><text fill="#000000" font-family="sans-serif" font-size="14" lengthAdjust="spacing" textLength="59" x="292.5" y="213.292">Desktop</text></g><!--MD5=[92d74ced912897a043509c1714280fc8]
entity Browser Extension--><g id="elem_Browser Extension"><rect fill="#F1F1F1" height="36.2969" rx="2.5" ry="2.5" style="stroke:#181818;stroke-width:0.5;" width="149" x="98.5" y="190.2969"/><text fill="#000000" font-family="sans-serif" font-size="14" lengthAdjust="spacing" textLength="129" x="108.5" y="213.292">Browser Extension</text></g><!--MD5=[df6a39b053164d23cc3ecae9c3484a54]
entity CLI--><g id="elem_CLI"><rect fill="#F1F1F1" height="36.2969" rx="2.5" ry="2.5" style="stroke:#181818;stroke-width:0.5;" width="40" x="23" y="190.2969"/><text fill="#000000" font-family="sans-serif" font-size="14" lengthAdjust="spacing" textLength="20" x="33" y="213.292">CLI</text></g><!--MD5=[360564b72d4478c94e9293d0818cae9d]
entity Common--><g id="elem_Common"><rect fill="#F1F1F1" height="36.2969" rx="2.5" ry="2.5" style="stroke:#181818;stroke-width:0.5;" width="83" x="158.5" y="397.2969"/><text fill="#000000" font-family="sans-serif" font-size="14" lengthAdjust="spacing" textLength="63" x="168.5" y="420.292">Common</text></g><!--MD5=[a540e78612a372e5cadf164e954960e5]
entity Angular--><g id="elem_Angular"><rect fill="#F1F1F1" height="36.2969" rx="2.5" ry="2.5" style="stroke:#181818;stroke-width:0.5;" width="72" x="211" y="301.2969"/><text fill="#000000" font-family="sans-serif" font-size="14" lengthAdjust="spacing" textLength="52" x="221" y="324.292">Angular</text></g><!--MD5=[ed3747ad05e6730ca3536a40b62ba942]
entity Node--><g id="elem_Node"><rect fill="#F1F1F1" height="36.2969" rx="2.5" ry="2.5" style="stroke:#181818;stroke-width:0.5;" width="57" x="118.5" y="301.2969"/><text fill="#000000" font-family="sans-serif" font-size="14" lengthAdjust="spacing" textLength="37" x="128.5" y="324.292">Node</text></g><!--MD5=[204975fdde025260a56bfa58f30203e7]
link Bit Web to Web Vault--><g id="link_Bit Web_Web Vault"><path d="M441,115.6269 C441,115.6269 441,184.9369 441,184.9369 " fill="none" id="Bit Web-to-Web Vault" style="stroke:#181818;stroke-width:1.0;"/><polygon fill="#181818" points="441,189.9369,445,180.9369,441,184.9369,437,180.9369,441,189.9369" style="stroke:#181818;stroke-width:1.0;"/></g><!--MD5=[79af55e8ea6a222524da4cea991a7e13]
link Bit Web to Angular--><g id="link_Bit Web_Angular"><path d="M404.2,97.2969 C351.07,97.2969 259.17,97.2969 259.17,97.2969 C259.17,97.2969 259.17,296.1269 259.17,296.1269 " fill="none" id="Bit Web-to-Angular" style="stroke:#181818;stroke-width:1.0;"/><polygon fill="#181818" points="259.17,301.1269,263.17,292.1269,259.17,296.1269,255.17,292.1269,259.17,301.1269" style="stroke:#181818;stroke-width:1.0;"/></g><!--MD5=[08f6484b855ed2c066f782d978eb53be]
link Web Vault to Angular--><g id="link_Web Vault_Angular"><path d="M441,226.6269 C441,258.1569 441,319.2969 441,319.2969 C441,319.2969 288.04,319.2969 288.04,319.2969 " fill="none" id="Web Vault-to-Angular" style="stroke:#181818;stroke-width:1.0;"/><polygon fill="#181818" points="283.04,319.2969,292.04,323.2969,288.04,319.2969,292.04,315.2969,283.04,319.2969" style="stroke:#181818;stroke-width:1.0;"/></g><!--MD5=[98294df2292bd2f3372fd754ced25948]
link Browser Extension to Angular--><g id="link_Browser Extension_Angular"><path d="M229.25,226.6269 C229.25,226.6269 229.25,295.9369 229.25,295.9369 " fill="none" id="Browser Extension-to-Angular" style="stroke:#181818;stroke-width:1.0;"/><polygon fill="#181818" points="229.25,300.9369,233.25,291.9369,229.25,295.9369,225.25,291.9369,229.25,300.9369" style="stroke:#181818;stroke-width:1.0;"/></g><!--MD5=[67c86d88b6ed8544106fb16a33eb83d7]
link CLI to Node--><g id="link_CLI_Node"><path d="M43,226.6269 C43,258.1569 43,319.2969 43,319.2969 C43,319.2969 113.31,319.2969 113.31,319.2969 " fill="none" id="CLI-to-Node" style="stroke:#181818;stroke-width:1.0;"/><polygon fill="#181818" points="118.31,319.2969,109.31,315.2969,113.31,319.2969,109.31,323.2969,118.31,319.2969" style="stroke:#181818;stroke-width:1.0;"/></g><!--MD5=[01efd752e2bc049628f4ff05ba2e10a7]
link Angular to Common--><g id="link_Angular_Common"><path d="M226.25,337.3569 C226.25,337.3569 226.25,391.9969 226.25,391.9969 " fill="none" id="Angular-to-Common" style="stroke:#181818;stroke-width:1.0;"/><polygon fill="#181818" points="226.25,396.9969,230.25,387.9969,226.25,391.9969,222.25,387.9969,226.25,396.9969" style="stroke:#181818;stroke-width:1.0;"/></g><!--MD5=[f8f3e4fd69badb1f800bab842fa70b49]
link Desktop to Angular--><g id="link_Desktop_Angular"><path d="M282.44,208.2969 C275.71,208.2969 270.83,208.2969 270.83,208.2969 C270.83,208.2969 270.83,295.9669 270.83,295.9669 " fill="none" id="Desktop-to-Angular" style="stroke:#181818;stroke-width:1.0;"/><polygon fill="#181818" points="270.83,300.9669,274.83,291.9669,270.83,295.9669,266.83,291.9669,270.83,300.9669" style="stroke:#181818;stroke-width:1.0;"/></g><!--MD5=[e9cc4df805a42c8ef5b150c4407e8484]
link Node to Common--><g id="link_Node_Common"><path d="M167,337.3569 C167,337.3569 167,391.9969 167,391.9969 " fill="none" id="Node-to-Common" style="stroke:#181818;stroke-width:1.0;"/><polygon fill="#181818" points="167,396.9969,171,387.9969,167,391.9969,163,387.9969,167,396.9969" style="stroke:#181818;stroke-width:1.0;"/></g><!--MD5=[b8ca74c9024d201207a820b526db838c]
@startuml
skinparam BackgroundColor transparent
skinparam componentStyle rectangle
skinparam linetype ortho

title Simplified Package Diagram

component "Bitwarden License" {
  component "Bit Web"
}

component apps {
  component "Web Vault"
  component "Desktop"
  component "Browser Extension"
  component "CLI"
}

component libs {
  component "Common"
  component "Angular"
  component "Node"
}

[Bit Web] - -> [Web Vault]
[Bit Web] - -[norank]> [Angular]

[Web Vault] - -> [Angular]

[Browser Extension] - -> [Angular]

[CLI] - -> [Node]

[Angular] - -> [Common]

[Desktop] - -> [Angular]

[Node] - -> [Common]
@enduml

PlantUML version 1.2022.12(Sun Oct 23 18:12:26 GMT 2022)
(GPL source distribution)
Java Runtime: OpenJDK Runtime Environment
JVM: OpenJDK 64-Bit Server VM
Default Encoding: UTF-8
Language: en
Country: US
--></g></svg>