<?xml version="1.0" encoding="us-ascii" standalone="no"?><svg xmlns="http://www.w3.org/2000/svg" xmlns:xlink="http://www.w3.org/1999/xlink" contentStyleType="text/css" height="502px" preserveAspectRatio="none" style="width:544px;height:502px;background:#FFFFFF;" version="1.1" viewBox="0 0 544 502" width="544px" zoomAndPan="magnify"><defs/><g><!--class Internal[Domain]Service--><g id="elem_Internal[Domain]Service"><rect codeLine="1" fill="#F0F8FF" height="80.5938" id="Internal[Domain]Service" rx="2.5" ry="2.5" style="stroke:#181818;stroke-width:0.5;" width="207" x="192" y="257.3"/><ellipse cx="211.95" cy="273.3" fill="#A9DCDF" rx="11" ry="11" style="stroke:#181818;stroke-width:1.0;"/><path d="M212.0594,268.6437 L210.9031,273.7219 L213.2313,273.7219 L212.0594,268.6437 Z M210.575,266.4094 L213.5594,266.4094 L216.9188,278.8 L214.4656,278.8 L213.7,275.7375 L210.4188,275.7375 L209.6688,278.8 L207.2313,278.8 L210.575,266.4094 Z " fill="#000000"/><text fill="#000000" font-family="sans-serif" font-size="14" font-style="italic" lengthAdjust="spacing" textLength="164" x="227.05" y="278.1467">Internal[Domain]Service</text><line style="stroke:#181818;stroke-width:0.5;" x1="193" x2="398" y1="289.3" y2="289.3"/><line style="stroke:#181818;stroke-width:0.5;" x1="193" x2="398" y1="297.3" y2="297.3"/><ellipse cx="203" cy="310.9484" fill="#84BE84" rx="3" ry="3" style="stroke:#038048;stroke-width:1.0;"/><text fill="#000000" font-family="sans-serif" font-size="14" lengthAdjust="spacing" textLength="157" x="212" y="314.2951">upsert(item: [Domain])</text><ellipse cx="203" cy="327.2453" fill="#84BE84" rx="3" ry="3" style="stroke:#038048;stroke-width:1.0;"/><text fill="#000000" font-family="sans-serif" font-size="14" lengthAdjust="spacing" textLength="181" x="212" y="330.592">replace(items: [Domain][])</text></g><!--class [Domain]Service--><g id="elem_[Domain]Service"><rect codeLine="5" fill="#F0F8FF" height="96.8906" id="[Domain]Service" rx="2.5" ry="2.5" style="stroke:#181818;stroke-width:0.5;" width="299" x="9" y="398.89"/><ellipse cx="97.75" cy="414.89" fill="#ADD1B2" rx="11" ry="11" style="stroke:#181818;stroke-width:1.0;"/><path d="M100.7188,420.5306 Q100.1406,420.8275 99.5,420.9681 Q98.8594,421.1244 98.1563,421.1244 Q95.6563,421.1244 94.3281,419.4838 Q93.0156,417.8275 93.0156,414.7025 Q93.0156,411.5775 94.3281,409.9213 Q95.6563,408.265 98.1563,408.265 Q98.8594,408.265 99.5,408.4213 Q100.1563,408.5775 100.7188,408.8744 L100.7188,411.5931 Q100.0938,411.015 99.5,410.7494 Q98.9063,410.4681 98.2813,410.4681 Q96.9375,410.4681 96.25,411.5463 Q95.5625,412.6088 95.5625,414.7025 Q95.5625,416.7963 96.25,417.8744 Q96.9375,418.9369 98.2813,418.9369 Q98.9063,418.9369 99.5,418.6713 Q100.0938,418.39 100.7188,417.8119 L100.7188,420.5306 Z " fill="#000000"/><text fill="#000000" font-family="sans-serif" font-size="14" lengthAdjust="spacing" textLength="113" x="118.25" y="419.7367">[Domain]Service</text><line style="stroke:#181818;stroke-width:0.5;" x1="10" x2="307" y1="430.89" y2="430.89"/><polygon fill="none" points="20,439.5384,24,443.5384,20,447.5384,16,443.5384" style="stroke:#B38D22;stroke-width:1.0;"/><text fill="#000000" font-family="sans-serif" font-size="14" lengthAdjust="spacing" textLength="273" x="29" y="447.8851">subject : BehaviorSubject&lt;[Domain][]&gt;</text><ellipse cx="20" cy="460.8353" fill="none" rx="3" ry="3" style="stroke:#038048;stroke-width:1.0;"/><text fill="#000000" font-family="sans-serif" font-size="14" lengthAdjust="spacing" textLength="260" x="29" y="464.182">observable: Observable&lt;[Domain][]&gt;</text><line style="stroke:#181818;stroke-width:0.5;" x1="10" x2="307" y1="471.4838" y2="471.4838"/><rect fill="#F24D5C" height="6" style="stroke:#C82930;stroke-width:1.0;" width="6" x="17" y="482.1322"/><text fill="#000000" font-family="sans-serif" font-size="14" lengthAdjust="spacing" textLength="145" x="29" y="488.4789">updateObservables()</text></g><!--class [Domain]ApiService--><g id="elem_[Domain]ApiService"><rect codeLine="10" fill="#F0F8FF" height="64.2969" id="[Domain]ApiService" rx="2.5" ry="2.5" style="stroke:#181818;stroke-width:0.5;" width="166" x="242.5" y="116"/><ellipse cx="257.5" cy="132" fill="#ADD1B2" rx="11" ry="11" style="stroke:#181818;stroke-width:1.0;"/><path d="M260.4688,137.6406 Q259.8906,137.9375 259.25,138.0781 Q258.6094,138.2344 257.9063,138.2344 Q255.4063,138.2344 254.0781,136.5938 Q252.7656,134.9375 252.7656,131.8125 Q252.7656,128.6875 254.0781,127.0313 Q255.4063,125.375 257.9063,125.375 Q258.6094,125.375 259.25,125.5313 Q259.9063,125.6875 260.4688,125.9844 L260.4688,128.7031 Q259.8438,128.125 259.25,127.8594 Q258.6563,127.5781 258.0313,127.5781 Q256.6875,127.5781 256,128.6563 Q255.3125,129.7188 255.3125,131.8125 Q255.3125,133.9063 256,134.9844 Q256.6875,136.0469 258.0313,136.0469 Q258.6563,136.0469 259.25,135.7813 Q259.8438,135.5 260.4688,134.9219 L260.4688,137.6406 Z " fill="#000000"/><text fill="#000000" font-family="sans-serif" font-size="14" lengthAdjust="spacing" textLength="134" x="271.5" y="136.8467">[Domain]ApiService</text><line style="stroke:#181818;stroke-width:0.5;" x1="243.5" x2="407.5" y1="148" y2="148"/><line style="stroke:#181818;stroke-width:0.5;" x1="243.5" x2="407.5" y1="156" y2="156"/><ellipse cx="253.5" cy="169.6484" fill="#84BE84" rx="3" ry="3" style="stroke:#038048;stroke-width:1.0;"/><text fill="#000000" font-family="sans-serif" font-size="14" lengthAdjust="spacing" textLength="96" x="262.5" y="172.9951">put[Domain]()</text></g><!--class UI Component--><g id="elem_UI Component"><rect codeLine="14" fill="#F1F1F1" height="48" id="UI Component" rx="2.5" ry="2.5" style="stroke:#181818;stroke-width:0.5;" width="131" x="260" y="7"/><ellipse cx="275" cy="23" fill="#ADD1B2" rx="11" ry="11" style="stroke:#181818;stroke-width:1.0;"/><path d="M277.9688,28.6406 Q277.3906,28.9375 276.75,29.0781 Q276.1094,29.2344 275.4063,29.2344 Q272.9063,29.2344 271.5781,27.5938 Q270.2656,25.9375 270.2656,22.8125 Q270.2656,19.6875 271.5781,18.0313 Q272.9063,16.375 275.4063,16.375 Q276.1094,16.375 276.75,16.5313 Q277.4063,16.6875 277.9688,16.9844 L277.9688,19.7031 Q277.3438,19.125 276.75,18.8594 Q276.1563,18.5781 275.5313,18.5781 Q274.1875,18.5781 273.5,19.6563 Q272.8125,20.7188 272.8125,22.8125 Q272.8125,24.9063 273.5,25.9844 Q274.1875,27.0469 275.5313,27.0469 Q276.1563,27.0469 276.75,26.7813 Q277.3438,26.5 277.9688,25.9219 L277.9688,28.6406 Z " fill="#000000"/><text fill="#000000" font-family="sans-serif" font-size="14" lengthAdjust="spacing" textLength="99" x="289" y="27.8467">UI Component</text><line style="stroke:#181818;stroke-width:0.5;" x1="261" x2="390" y1="39" y2="39"/><line style="stroke:#181818;stroke-width:0.5;" x1="261" x2="390" y1="47" y2="47"/></g><!--class Other UI Component--><g id="elem_Other UI Component"><rect codeLine="15" fill="#F1F1F1" height="48" id="Other UI Component" rx="2.5" ry="2.5" style="stroke:#181818;stroke-width:0.5;" width="174" x="51.5" y="7"/><ellipse cx="66.5" cy="23" fill="#ADD1B2" rx="11" ry="11" style="stroke:#181818;stroke-width:1.0;"/><path d="M69.4688,28.6406 Q68.8906,28.9375 68.25,29.0781 Q67.6094,29.2344 66.9063,29.2344 Q64.4063,29.2344 63.0781,27.5938 Q61.7656,25.9375 61.7656,22.8125 Q61.7656,19.6875 63.0781,18.0313 Q64.4063,16.375 66.9063,16.375 Q67.6094,16.375 68.25,16.5313 Q68.9063,16.6875 69.4688,16.9844 L69.4688,19.7031 Q68.8438,19.125 68.25,18.8594 Q67.6563,18.5781 67.0313,18.5781 Q65.6875,18.5781 65,19.6563 Q64.3125,20.7188 64.3125,22.8125 Q64.3125,24.9063 65,25.9844 Q65.6875,27.0469 67.0313,27.0469 Q67.6563,27.0469 68.25,26.7813 Q68.8438,26.5 69.4688,25.9219 L69.4688,28.6406 Z " fill="#000000"/><text fill="#000000" font-family="sans-serif" font-size="14" lengthAdjust="spacing" textLength="142" x="80.5" y="27.8467">Other UI Component</text><line style="stroke:#181818;stroke-width:0.5;" x1="52.5" x2="224.5" y1="39" y2="39"/><line style="stroke:#181818;stroke-width:0.5;" x1="52.5" x2="224.5" y1="47" y2="47"/></g><!--class ApiService--><g id="elem_ApiService"><rect codeLine="17" fill="#F1F1F1" height="64.2969" id="ApiService" rx="2.5" ry="2.5" style="stroke:#181818;stroke-width:0.5;" width="103" x="434" y="265.44"/><ellipse cx="449" cy="281.44" fill="#ADD1B2" rx="11" ry="11" style="stroke:#181818;stroke-width:1.0;"/><path d="M451.9688,287.0806 Q451.3906,287.3775 450.75,287.5181 Q450.1094,287.6744 449.4063,287.6744 Q446.9063,287.6744 445.5781,286.0337 Q444.2656,284.3775 444.2656,281.2525 Q444.2656,278.1275 445.5781,276.4712 Q446.9063,274.815 449.4063,274.815 Q450.1094,274.815 450.75,274.9712 Q451.4063,275.1275 451.9688,275.4244 L451.9688,278.1431 Q451.3438,277.565 450.75,277.2994 Q450.1563,277.0181 449.5313,277.0181 Q448.1875,277.0181 447.5,278.0962 Q446.8125,279.1587 446.8125,281.2525 Q446.8125,283.3462 447.5,284.4244 Q448.1875,285.4869 449.5313,285.4869 Q450.1563,285.4869 450.75,285.2212 Q451.3438,284.94 451.9688,284.3619 L451.9688,287.0806 Z " fill="#000000"/><text fill="#000000" font-family="sans-serif" font-size="14" lengthAdjust="spacing" textLength="71" x="463" y="286.2867">ApiService</text><line style="stroke:#181818;stroke-width:0.5;" x1="435" x2="536" y1="297.44" y2="297.44"/><line style="stroke:#181818;stroke-width:0.5;" x1="435" x2="536" y1="305.44" y2="305.44"/><ellipse cx="445" cy="319.0884" fill="#84BE84" rx="3" ry="3" style="stroke:#038048;stroke-width:1.0;"/><text fill="#000000" font-family="sans-serif" font-size="14" lengthAdjust="spacing" textLength="45" x="454" y="322.4351">send()</text></g><!--link UI Component to [Domain]ApiService--><g id="link_UI Component_[Domain]ApiService"><path codeLine="21" d="M325.5,55.3 C325.5,72.65 325.5,90.53 325.5,109.59 " fill="none" id="UI Component-to-[Domain]ApiService" style="stroke:#181818;stroke-width:1.0;"/><polygon fill="#181818" points="325.5,115.59,329.5,106.59,325.5,110.59,321.5,106.59,325.5,115.59" style="stroke:#181818;stroke-width:1.0;"/></g><!--link [Domain]ApiService to ApiService--><g id="link_[Domain]ApiService_ApiService"><path codeLine="22" d="M359.82,180.78 C386.82,205.66 419.8375,236.0843 446.8175,260.9443 " fill="none" id="[Domain]ApiService-to-ApiService" style="stroke:#181818;stroke-width:1.0;"/><polygon fill="#181818" points="451.23,265.01,447.3218,255.9698,447.553,261.6219,441.9008,261.853,451.23,265.01" style="stroke:#181818;stroke-width:1.0;"/></g><!--link [Domain]ApiService to Internal[Domain]Service--><g id="link_[Domain]ApiService_Internal[Domain]Service"><path codeLine="23" d="M319.06,180.78 C314.54,203.03 309.6347,227.1001 304.7847,250.9701 " fill="none" id="[Domain]ApiService-to-Internal[Domain]Service" style="stroke:#181818;stroke-width:1.0;"/><polygon fill="#181818" points="303.59,256.85,309.3019,248.8267,304.5856,251.9501,301.4621,247.2338,303.59,256.85" style="stroke:#181818;stroke-width:1.0;"/></g><!--link Internal[Domain]Service to [Domain]Service--><g id="link_Internal[Domain]Service_[Domain]Service"><path codeLine="24" d="M258.79,338.18 C241.59,356.73 225.0305,374.5911 206.9605,394.0711 " fill="none" id="Internal[Domain]Service-to-[Domain]Service" style="stroke:#181818;stroke-width:1.0;"/><polygon fill="#181818" points="202.88,398.47,211.9332,394.592,206.2804,394.8043,206.0681,389.1514,202.88,398.47" style="stroke:#181818;stroke-width:1.0;"/></g><!--link [Domain]Service to Other UI Component--><g id="link_[Domain]Service_Other UI Component"><path codeLine="25" d="M156.2,398.63 C151.9,309.66 143.1097,127.453 139.9197,61.453 " fill="none" id="[Domain]Service-to-Other UI Component" style="stroke:#181818;stroke-width:1.0;stroke-dasharray:7.0,7.0;"/><polygon fill="#181818" points="139.63,55.46,136.0692,64.6426,139.8714,60.4542,144.0598,64.2564,139.63,55.46" style="stroke:#181818;stroke-width:1.0;"/><text fill="#000000" font-family="sans-serif" font-size="13" lengthAdjust="spacing" textLength="114" x="149.5" y="223.3669">Observable next()</text></g><!--SRC=[XP7DQiCm48JlVef5kJWKvm5CCVJdabCEeQVGmyfP4XLP4jBQ54hUFKB6SLp7v2HfvzFC2A4CxB5cg3M605l3v0tgmwTjK9dlFVbErGGhr76HkYNuom1Ue7M1FEUAgIbXeDT9ykGqrfIqC8g7A5-oFkQ9_Gf2AtyejYhXdSxOAUlt_UHrjAjIcfMnI8TIKmcxs_uVLiI-HsGQWP3FsxmvjVXUr_A0fPjiJyHdyb7kJSJN5ZviuwmXms8OxX8pbOROkxW-8v0v9lDiQWP5KO6OjnJPes6Yn_Co8nO-EzekATCcynetRhEf7ZuUxZy93Frolhu2]--></g></svg>