<?xml version="1.0" encoding="us-ascii" standalone="no"?><svg xmlns="http://www.w3.org/2000/svg" xmlns:xlink="http://www.w3.org/1999/xlink" contentStyleType="text/css" height="394px" preserveAspectRatio="none" style="width:504px;height:394px;background:#FFFFFF;" version="1.1" viewBox="0 0 504 394" width="504px" zoomAndPan="magnify"><defs/><g><!--class Internal[Domain]Service--><g id="elem_Internal[Domain]Service"><rect codeLine="1" fill="#F0F8FF" height="80.5938" id="Internal[Domain]Service" rx="2.5" ry="2.5" style="stroke:#181818;stroke-width:0.5;" width="207" x="290" y="148.6"/><ellipse cx="309.95" cy="164.6" fill="#A9DCDF" rx="11" ry="11" style="stroke:#181818;stroke-width:1.0;"/><path d="M310.0594,159.9438 L308.9031,165.0219 L311.2313,165.0219 L310.0594,159.9438 Z M308.575,157.7094 L311.5594,157.7094 L314.9188,170.1 L312.4656,170.1 L311.7,167.0375 L308.4188,167.0375 L307.6688,170.1 L305.2313,170.1 L308.575,157.7094 Z " fill="#000000"/><text fill="#000000" font-family="sans-serif" font-size="14" font-style="italic" lengthAdjust="spacing" textLength="164" x="325.05" y="169.4467">Internal[Domain]Service</text><line style="stroke:#181818;stroke-width:0.5;" x1="291" x2="496" y1="180.6" y2="180.6"/><line style="stroke:#181818;stroke-width:0.5;" x1="291" x2="496" y1="188.6" y2="188.6"/><ellipse cx="301" cy="202.2484" fill="#84BE84" rx="3" ry="3" style="stroke:#038048;stroke-width:1.0;"/><text fill="#000000" font-family="sans-serif" font-size="14" lengthAdjust="spacing" textLength="157" x="310" y="205.5951">upsert(item: [Domain])</text><ellipse cx="301" cy="218.5453" fill="#84BE84" rx="3" ry="3" style="stroke:#038048;stroke-width:1.0;"/><text fill="#000000" font-family="sans-serif" font-size="14" lengthAdjust="spacing" textLength="181" x="310" y="221.892">replace(items: [Domain][])</text></g><!--class [Domain]Service--><g id="elem_[Domain]Service"><rect codeLine="5" fill="#F0F8FF" height="96.8906" id="[Domain]Service" rx="2.5" ry="2.5" style="stroke:#181818;stroke-width:0.5;" width="299" x="9" y="290.19"/><ellipse cx="97.75" cy="306.19" fill="#ADD1B2" rx="11" ry="11" style="stroke:#181818;stroke-width:1.0;"/><path d="M100.7188,311.8306 Q100.1406,312.1275 99.5,312.2681 Q98.8594,312.4244 98.1563,312.4244 Q95.6563,312.4244 94.3281,310.7838 Q93.0156,309.1275 93.0156,306.0025 Q93.0156,302.8775 94.3281,301.2213 Q95.6563,299.565 98.1563,299.565 Q98.8594,299.565 99.5,299.7213 Q100.1563,299.8775 100.7188,300.1744 L100.7188,302.8931 Q100.0938,302.315 99.5,302.0494 Q98.9063,301.7681 98.2813,301.7681 Q96.9375,301.7681 96.25,302.8463 Q95.5625,303.9088 95.5625,306.0025 Q95.5625,308.0963 96.25,309.1744 Q96.9375,310.2369 98.2813,310.2369 Q98.9063,310.2369 99.5,309.9713 Q100.0938,309.69 100.7188,309.1119 L100.7188,311.8306 Z " fill="#000000"/><text fill="#000000" font-family="sans-serif" font-size="14" lengthAdjust="spacing" textLength="113" x="118.25" y="311.0367">[Domain]Service</text><line style="stroke:#181818;stroke-width:0.5;" x1="10" x2="307" y1="322.19" y2="322.19"/><polygon fill="none" points="20,330.8384,24,334.8384,20,338.8384,16,334.8384" style="stroke:#B38D22;stroke-width:1.0;"/><text fill="#000000" font-family="sans-serif" font-size="14" lengthAdjust="spacing" textLength="273" x="29" y="339.1851">subject : BehaviorSubject&lt;[Domain][]&gt;</text><ellipse cx="20" cy="352.1353" fill="none" rx="3" ry="3" style="stroke:#038048;stroke-width:1.0;"/><text fill="#000000" font-family="sans-serif" font-size="14" lengthAdjust="spacing" textLength="260" x="29" y="355.482">observable: Observable&lt;[Domain][]&gt;</text><line style="stroke:#181818;stroke-width:0.5;" x1="10" x2="307" y1="362.7838" y2="362.7838"/><rect fill="#F24D5C" height="6" style="stroke:#C82930;stroke-width:1.0;" width="6" x="17" y="373.4322"/><text fill="#000000" font-family="sans-serif" font-size="14" lengthAdjust="spacing" textLength="145" x="29" y="379.7789">updateObservables()</text></g><!--class UI Component--><g id="elem_UI Component"><rect codeLine="11" fill="#F1F1F1" height="48" id="UI Component" rx="2.5" ry="2.5" style="stroke:#181818;stroke-width:0.5;" width="131" x="117" y="23.3"/><ellipse cx="132" cy="39.3" fill="#ADD1B2" rx="11" ry="11" style="stroke:#181818;stroke-width:1.0;"/><path d="M134.9688,44.9406 Q134.3906,45.2375 133.75,45.3781 Q133.1094,45.5344 132.4063,45.5344 Q129.9063,45.5344 128.5781,43.8938 Q127.2656,42.2375 127.2656,39.1125 Q127.2656,35.9875 128.5781,34.3313 Q129.9063,32.675 132.4063,32.675 Q133.1094,32.675 133.75,32.8313 Q134.4063,32.9875 134.9688,33.2844 L134.9688,36.0031 Q134.3438,35.425 133.75,35.1594 Q133.1563,34.8781 132.5313,34.8781 Q131.1875,34.8781 130.5,35.9563 Q129.8125,37.0188 129.8125,39.1125 Q129.8125,41.2063 130.5,42.2844 Q131.1875,43.3469 132.5313,43.3469 Q133.1563,43.3469 133.75,43.0813 Q134.3438,42.8 134.9688,42.2219 L134.9688,44.9406 Z " fill="#000000"/><text fill="#000000" font-family="sans-serif" font-size="14" lengthAdjust="spacing" textLength="99" x="146" y="44.1467">UI Component</text><line style="stroke:#181818;stroke-width:0.5;" x1="118" x2="247" y1="55.3" y2="55.3"/><line style="stroke:#181818;stroke-width:0.5;" x1="118" x2="247" y1="63.3" y2="63.3"/></g><!--class SyncService--><g id="elem_SyncService"><rect codeLine="12" fill="#F1F1F1" height="80.5938" id="SyncService" rx="2.5" ry="2.5" style="stroke:#181818;stroke-width:0.5;" width="131" x="283" y="7"/><ellipse cx="305.2" cy="23" fill="#ADD1B2" rx="11" ry="11" style="stroke:#181818;stroke-width:1.0;"/><path d="M308.1688,28.6406 Q307.5906,28.9375 306.95,29.0781 Q306.3094,29.2344 305.6063,29.2344 Q303.1063,29.2344 301.7781,27.5938 Q300.4656,25.9375 300.4656,22.8125 Q300.4656,19.6875 301.7781,18.0313 Q303.1063,16.375 305.6063,16.375 Q306.3094,16.375 306.95,16.5313 Q307.6063,16.6875 308.1688,16.9844 L308.1688,19.7031 Q307.5438,19.125 306.95,18.8594 Q306.3563,18.5781 305.7313,18.5781 Q304.3875,18.5781 303.7,19.6563 Q303.0125,20.7188 303.0125,22.8125 Q303.0125,24.9063 303.7,25.9844 Q304.3875,27.0469 305.7313,27.0469 Q306.3563,27.0469 306.95,26.7813 Q307.5438,26.5 308.1688,25.9219 L308.1688,28.6406 Z " fill="#000000"/><text fill="#000000" font-family="sans-serif" font-size="14" lengthAdjust="spacing" textLength="83" x="320.8" y="27.8467">SyncService</text><line style="stroke:#181818;stroke-width:0.5;" x1="284" x2="413" y1="39" y2="39"/><line style="stroke:#181818;stroke-width:0.5;" x1="284" x2="413" y1="47" y2="47"/><ellipse cx="294" cy="60.6484" fill="#84BE84" rx="3" ry="3" style="stroke:#038048;stroke-width:1.0;"/><text fill="#000000" font-family="sans-serif" font-size="14" lengthAdjust="spacing" textLength="62" x="303" y="63.9951">fullSync()</text><rect fill="#F24D5C" height="6" style="stroke:#C82930;stroke-width:1.0;" width="6" x="291" y="73.9453"/><text fill="#000000" font-family="sans-serif" font-size="14" lengthAdjust="spacing" textLength="105" x="303" y="80.292">sync[Domain]()</text></g><!--link SyncService to Internal[Domain]Service--><g id="link_SyncService_Internal[Domain]Service"><path codeLine="18" d="M361.27,87.93 C367.36,106.79 372.7699,123.5791 378.8499,142.4491 " fill="none" id="SyncService-to-Internal[Domain]Service" style="stroke:#181818;stroke-width:1.0;"/><polygon fill="#181818" points="380.69,148.16,381.7371,138.367,379.1566,143.4009,374.1226,140.8204,380.69,148.16" style="stroke:#181818;stroke-width:1.0;"/></g><!--link Internal[Domain]Service to [Domain]Service--><g id="link_Internal[Domain]Service_[Domain]Service"><path codeLine="19" d="M330.22,229.68 C300.72,248.23 270.4592,267.246 239.5292,286.696 " fill="none" id="Internal[Domain]Service-to-[Domain]Service" style="stroke:#181818;stroke-width:1.0;"/><polygon fill="#181818" points="234.45,289.89,244.1981,288.4851,238.6827,287.2283,239.9395,281.7129,234.45,289.89" style="stroke:#181818;stroke-width:1.0;"/></g><!--link [Domain]Service to UI Component--><g id="link_[Domain]Service_UI Component"><path codeLine="20" d="M154.4,290.04 C151.96,251.68 150.4,196.46 156.5,148.6 C159.94,121.65 166.5568,97.3226 172.8968,77.2026 " fill="none" id="[Domain]Service-to-UI Component" style="stroke:#181818;stroke-width:1.0;stroke-dasharray:7.0,7.0;"/><polygon fill="#181818" points="174.7,71.48,168.1801,78.8618,173.1973,76.2488,175.8102,81.2661,174.7,71.48" style="stroke:#181818;stroke-width:1.0;"/><text fill="#000000" font-family="sans-serif" font-size="13" lengthAdjust="spacing" textLength="114" x="157.5" y="193.4569">Observable next()</text></g><!--SRC=[XL2nReCm5DpvYXDPY2Bo0QXYQBjaoe0wHHsUwMj3PMnaFr2hAlzUnuI24aMTRD_TUtS-KbuSrO9Qa_VO6M5dI1-URKkDUQtO3KtDM94EXz8zuoS1DkWxpqwoHhWjCAdNaNBSQQevSduc3u4-9QFDF-jNyBtwv92gm2CVQMYigqRaOLvNHZUhGf21bEO2-x_xbImFUTz8U1Rux9n6x0VBaLrqnQM3z6M79zjsrh2HT45KtwQU4ey36xptMf_nR1s173uy9lCBU0fEoN8upqkaTwfEaxlCE7Uhlz5jj-NLBx0i1uQ_96Jx1G00]--></g></svg>