<?xml version="1.0" encoding="us-ascii" standalone="no"?><svg xmlns="http://www.w3.org/2000/svg" xmlns:xlink="http://www.w3.org/1999/xlink" contentStyleType="text/css" height="337px" preserveAspectRatio="none" style="width:1070px;height:337px;background:#FFFFFF;" version="1.1" viewBox="0 0 1070 337" width="1070px" zoomAndPan="magnify"><defs/><g><text fill="#000000" font-family="sans-serif" font-size="14" font-weight="bold" lengthAdjust="spacing" textLength="70" x="501.5" y="27.9951">watchOS</text><rect fill="none" height="162.7969" style="stroke:#000000;stroke-width:1.5;" width="1054" x="10" y="107.5938"/><line style="stroke:#181818;stroke-width:0.5;stroke-dasharray:5.0,5.0;" x1="128" x2="128" y1="90.5938" y2="287.3906"/><line style="stroke:#181818;stroke-width:0.5;stroke-dasharray:5.0,5.0;" x1="362" x2="362" y1="90.5938" y2="287.3906"/><line style="stroke:#181818;stroke-width:0.5;stroke-dasharray:5.0,5.0;" x1="523" x2="523" y1="90.5938" y2="287.3906"/><line style="stroke:#181818;stroke-width:0.5;stroke-dasharray:5.0,5.0;" x1="658" x2="658" y1="90.5938" y2="287.3906"/><line style="stroke:#181818;stroke-width:0.5;stroke-dasharray:5.0,5.0;" x1="798" x2="798" y1="90.5938" y2="287.3906"/><line style="stroke:#181818;stroke-width:0.5;stroke-dasharray:5.0,5.0;" x1="958" x2="958" y1="90.5938" y2="287.3906"/><text fill="#000000" font-family="sans-serif" font-size="14" lengthAdjust="spacing" textLength="211" x="20" y="87.292">Watch Connectivity Framework</text><path d="M108,46.2969 L108,70.2969 M108,58.2969 L125,58.2969 " fill="none" style="stroke:#181818;stroke-width:0.5;"/><ellipse cx="137" cy="58.2969" fill="#E2E2F0" rx="12" ry="12" style="stroke:#181818;stroke-width:0.5;"/><text fill="#000000" font-family="sans-serif" font-size="14" lengthAdjust="spacing" textLength="211" x="20" y="299.3857">Watch Connectivity Framework</text><path d="M108,306.6875 L108,330.6875 M108,318.6875 L125,318.6875 " fill="none" style="stroke:#181818;stroke-width:0.5;"/><ellipse cx="137" cy="318.6875" fill="#E2E2F0" rx="12" ry="12" style="stroke:#181818;stroke-width:0.5;"/><rect fill="#E2E2F0" height="30.2969" rx="2.5" ry="2.5" style="stroke:#181818;stroke-width:0.5;" width="201" x="262" y="59.2969"/><text fill="#000000" font-family="sans-serif" font-size="14" lengthAdjust="spacing" textLength="187" x="269" y="79.292">WatchConnectivityManager</text><rect fill="#E2E2F0" height="30.2969" rx="2.5" ry="2.5" style="stroke:#181818;stroke-width:0.5;" width="201" x="262" y="286.3906"/><text fill="#000000" font-family="sans-serif" font-size="14" lengthAdjust="spacing" textLength="187" x="269" y="306.3857">WatchConnectivityManager</text><rect fill="#E2E2F0" height="30.2969" rx="2.5" ry="2.5" style="stroke:#181818;stroke-width:0.5;" width="100" x="473" y="59.2969"/><text fill="#000000" font-family="sans-serif" font-size="14" lengthAdjust="spacing" textLength="86" x="480" y="79.292">StateService</text><rect fill="#E2E2F0" height="30.2969" rx="2.5" ry="2.5" style="stroke:#181818;stroke-width:0.5;" width="100" x="473" y="286.3906"/><text fill="#000000" font-family="sans-serif" font-size="14" lengthAdjust="spacing" textLength="86" x="480" y="306.3857">StateService</text><rect fill="#E2E2F0" height="30.2969" rx="2.5" ry="2.5" style="stroke:#181818;stroke-width:0.5;" width="151" x="583" y="59.2969"/><text fill="#000000" font-family="sans-serif" font-size="14" lengthAdjust="spacing" textLength="137" x="590" y="79.292">EnvironmentService</text><rect fill="#E2E2F0" height="30.2969" rx="2.5" ry="2.5" style="stroke:#181818;stroke-width:0.5;" width="151" x="583" y="286.3906"/><text fill="#000000" font-family="sans-serif" font-size="14" lengthAdjust="spacing" textLength="137" x="590" y="306.3857">EnvironmentService</text><rect fill="#E2E2F0" height="30.2969" rx="2.5" ry="2.5" style="stroke:#181818;stroke-width:0.5;" width="109" x="744" y="59.2969"/><text fill="#000000" font-family="sans-serif" font-size="14" lengthAdjust="spacing" textLength="95" x="751" y="79.292">CipherService</text><rect fill="#E2E2F0" height="30.2969" rx="2.5" ry="2.5" style="stroke:#181818;stroke-width:0.5;" width="109" x="744" y="286.3906"/><text fill="#000000" font-family="sans-serif" font-size="14" lengthAdjust="spacing" textLength="95" x="751" y="306.3857">CipherService</text><rect fill="#E2E2F0" height="30.2969" rx="2.5" ry="2.5" style="stroke:#181818;stroke-width:0.5;" width="191" x="863" y="59.2969"/><text fill="#000000" font-family="sans-serif" font-size="14" lengthAdjust="spacing" textLength="177" x="870" y="79.292">watchConnectivitySubject</text><rect fill="#E2E2F0" height="30.2969" rx="2.5" ry="2.5" style="stroke:#181818;stroke-width:0.5;" width="191" x="863" y="286.3906"/><text fill="#000000" font-family="sans-serif" font-size="14" lengthAdjust="spacing" textLength="177" x="870" y="306.3857">watchConnectivitySubject</text><path d="M10,107.5938 L89,107.5938 L89,114.7266 L79,124.7266 L10,124.7266 L10,107.5938 " fill="#EEEEEE" style="stroke:#000000;stroke-width:1.5;"/><rect fill="none" height="162.7969" style="stroke:#000000;stroke-width:1.5;" width="1054" x="10" y="107.5938"/><text fill="#000000" font-family="sans-serif" font-size="13" font-weight="bold" lengthAdjust="spacing" textLength="34" x="25" y="120.6606">Sync</text><line style="stroke:#181818;stroke-width:1.0;" x1="360.5" x2="350.5" y1="145.8594" y2="141.8594"/><line style="stroke:#181818;stroke-width:1.0;" x1="360.5" x2="350.5" y1="145.8594" y2="149.8594"/><line style="stroke:#181818;stroke-width:1.0;" x1="128.5" x2="361.5" y1="145.8594" y2="145.8594"/><text fill="#000000" font-family="sans-serif" font-size="13" lengthAdjust="spacing" textLength="210" x="135.5" y="140.7935">didReceiveApplicationContext(...)</text><line style="stroke:#181818;stroke-width:1.0;" x1="521" x2="511" y1="174.9922" y2="170.9922"/><line style="stroke:#181818;stroke-width:1.0;" x1="521" x2="511" y1="174.9922" y2="178.9922"/><line style="stroke:#181818;stroke-width:1.0;" x1="362.5" x2="522" y1="174.9922" y2="174.9922"/><text fill="#000000" font-family="sans-serif" font-size="13" lengthAdjust="spacing" textLength="82" x="369.5" y="169.9263">update state</text><line style="stroke:#181818;stroke-width:1.0;" x1="656.5" x2="646.5" y1="204.125" y2="200.125"/><line style="stroke:#181818;stroke-width:1.0;" x1="656.5" x2="646.5" y1="204.125" y2="208.125"/><line style="stroke:#181818;stroke-width:1.0;" x1="362.5" x2="657.5" y1="204.125" y2="204.125"/><text fill="#000000" font-family="sans-serif" font-size="13" lengthAdjust="spacing" textLength="130" x="369.5" y="199.0591">update environment</text><line style="stroke:#181818;stroke-width:1.0;" x1="796.5" x2="786.5" y1="233.2578" y2="229.2578"/><line style="stroke:#181818;stroke-width:1.0;" x1="796.5" x2="786.5" y1="233.2578" y2="237.2578"/><line style="stroke:#181818;stroke-width:1.0;" x1="362.5" x2="797.5" y1="233.2578" y2="233.2578"/><text fill="#000000" font-family="sans-serif" font-size="13" lengthAdjust="spacing" textLength="100" x="369.5" y="228.1919">saveCiphers(...)</text><line style="stroke:#181818;stroke-width:1.0;" x1="956.5" x2="946.5" y1="262.3906" y2="258.3906"/><line style="stroke:#181818;stroke-width:1.0;" x1="956.5" x2="946.5" y1="262.3906" y2="266.3906"/><line style="stroke:#181818;stroke-width:1.0;" x1="362.5" x2="957.5" y1="262.3906" y2="262.3906"/><text fill="#000000" font-family="sans-serif" font-size="13" lengthAdjust="spacing" textLength="239" x="369.5" y="257.3247">fire notification change to subscribers</text><!--SRC=[RO_1ReCm38RlUGgBqtOO3z13fGdH6vgq73YRu8Atrec2eUFj5mOIxTHRvF_x7N_AUY6ueRh-mnhJ-55QZ3FKnGbmWAnU4YYy23dbYNM6KyGhtNpypap0gEmue6XgL7lZlb2XO4VnaRRs3xQAIfRYn8uUWN85IfauUhcIw5EiMB62Gq_nAL5loEt_NNPilj8xCwQBVWnWPt4cURyTZydb02std-I89teFuS8EbRsa1Ke_-fBd-Mk2gmHRUu0nj4a4XaLd6vVxc7Q9BInIEE14wzt3_RfwoSuS2SGhdxT_mVKe7O5w6CPcS96Rr3CaxIy0]--></g></svg>